<svg width="73" height="94" viewBox="0 0 73 94" fill="none" xmlns="http://www.w3.org/2000/svg">
<path d="M72.0465 81.2139C72.0465 62.7656 72.0465 44.3197 72.0465 25.8713C72.0465 23.858 71.6664 23.4951 69.6237 23.4975C65.8301 23.5049 62.0364 23.5098 58.2403 23.4975C52.6492 23.4804 48.5882 19.4415 48.5465 13.8258C48.5196 9.90958 48.5465 5.99332 48.5465 2.07706C48.5465 0.492904 48.0561 0 46.467 0C33.1905 0 19.9115 0 6.63252 0.00245226C2.63779 0.00490452 0.00406304 2.61166 0.00406304 6.59903C-0.000841482 33.5199 -0.000841482 60.4433 0.00161078 87.3642C0.00161078 90.7557 1.65934 92.9063 4.95272 93.8553C5.03365 93.8798 5.10231 93.951 5.17588 94H66.8723C67.2107 93.8774 67.5491 93.7523 67.8875 93.6322C70.2981 92.7812 71.9681 90.557 72.0245 88.0042C72.0735 85.7408 72.0441 83.4774 72.0465 81.2139ZM44.645 60.3476C44.6303 61.6179 44.054 62.2114 42.7862 62.2114C33.9752 62.2187 25.1667 62.2187 16.3557 62.2114C15.0707 62.2114 14.5165 61.6449 14.4994 60.3624C14.4847 59.0479 14.4871 57.7311 14.4994 56.4167C14.5116 55.0557 15.0364 54.526 16.3852 54.5235C20.76 54.5186 25.1348 54.5235 29.5096 54.5235C33.8845 54.5235 38.2593 54.5235 42.6341 54.5235C44.1006 54.5235 44.6401 55.0532 44.6499 56.4951C44.6572 57.7801 44.6622 59.0651 44.6499 60.3501L44.645 60.3476ZM44.645 70.809C44.6376 72.3147 44.1006 72.8615 42.5998 72.864C34.4019 72.8689 26.2015 72.864 18.0036 72.864C17.4225 72.864 16.8413 72.8787 16.2601 72.8591C15.0904 72.8223 14.519 72.2607 14.4994 71.0959C14.4773 69.8428 14.4871 68.5872 14.4945 67.3341C14.5043 65.853 15.0045 65.3478 16.4734 65.3454C20.8483 65.3404 25.2231 65.3454 29.5979 65.3454C33.9433 65.3454 38.2863 65.3429 42.6317 65.3454C44.0981 65.3454 44.6376 65.8775 44.645 67.3194C44.6523 68.4818 44.6499 69.6442 44.645 70.8065V70.809ZM42.4257 51.3944C34.5024 51.3944 26.5792 51.3944 18.6535 51.3944C17.859 51.3944 17.062 51.4092 16.2674 51.3895C15.0953 51.3601 14.5165 50.7961 14.4994 49.6362C14.4773 48.3218 14.4822 47.0049 14.4994 45.6905C14.5141 44.4104 15.0658 43.8783 16.3753 43.8758C20.7821 43.8685 25.1863 43.8758 29.593 43.8758C33.9065 43.8758 38.2201 43.8758 42.5336 43.8758C44.157 43.8758 44.645 44.3761 44.6499 46.0265C44.6499 47.0662 44.6499 48.106 44.6499 49.1457C44.6499 50.9064 44.1692 51.392 42.4306 51.3944H42.4257ZM47.7814 56.1813C47.801 55.1341 48.4018 54.5505 49.4563 54.5284C50.528 54.5088 51.5971 54.5235 52.6688 54.5235C53.7404 54.5235 54.8121 54.5064 55.8812 54.5284C56.9504 54.5505 57.5218 55.1096 57.5414 56.1813C57.5684 57.6502 57.5684 59.1191 57.539 60.5855C57.5193 61.586 56.9333 62.1893 55.9254 62.204C53.7527 62.2359 51.58 62.2383 49.4073 62.204C48.3749 62.1893 47.7937 61.5493 47.779 60.4948C47.7594 59.0578 47.7545 57.6183 47.779 56.1813H47.7814ZM47.779 45.6292C47.7937 44.4742 48.3798 43.8881 49.5372 43.8807C51.6119 43.866 53.6865 43.866 55.7635 43.8807C56.9504 43.8881 57.5243 44.4374 57.5439 45.5973C57.5659 46.9706 57.5684 48.3438 57.5414 49.7171C57.5218 50.7691 56.9431 51.3552 55.8886 51.3871C54.79 51.4214 53.6914 51.3944 52.5928 51.3944C51.5849 51.3944 50.5795 51.4116 49.5716 51.3944C48.37 51.3699 47.7888 50.7765 47.7765 49.57C47.7643 48.258 47.7594 46.946 47.7765 45.6341L47.779 45.6292ZM57.539 71.2112C57.5169 72.2509 56.921 72.8272 55.8543 72.8566C54.7851 72.886 53.7134 72.864 52.6418 72.864C51.6315 72.864 50.6211 72.8787 49.6133 72.8615C48.3822 72.8395 47.7937 72.2656 47.7814 71.0665C47.7667 69.7521 47.7667 68.4352 47.7814 67.1183C47.7961 65.9486 48.3675 65.3625 49.5299 65.3527C51.6413 65.3355 53.7527 65.3331 55.8641 65.3527C56.9431 65.3625 57.5218 65.9241 57.5414 66.9884C57.5708 68.396 57.5684 69.8036 57.5414 71.2112H57.539ZM34.8629 28.2476C35.6697 28.3604 36.1307 28.8582 36.1945 29.6478C36.2583 30.4423 35.8659 31.0064 35.0934 31.2369C34.7795 31.3301 34.4313 31.3423 34.0978 31.3448C27.2119 31.3497 20.3259 31.3497 13.44 31.3472C13.1948 31.3472 12.9471 31.3472 12.7092 31.3055C11.8583 31.1535 11.3482 30.5282 11.3752 29.7067C11.4022 28.8827 11.9539 28.2745 12.8318 28.2402C14.1144 28.1912 15.4018 28.2157 16.6868 28.2132C19.0434 28.2108 21.4 28.2132 23.7566 28.2132C27.153 28.2132 30.5494 28.2132 33.9482 28.2132C34.2548 28.2132 34.5637 28.2059 34.8654 28.2476H34.8629ZM13.2512 18.3968C17.6799 18.387 22.1087 18.3944 26.54 18.3919C27.3418 18.3919 28.0064 18.6617 28.2762 19.4636C28.4969 20.1183 28.3792 20.7878 27.7661 21.1753C27.4056 21.4009 26.9152 21.5039 26.4787 21.5112C24.279 21.5431 22.0793 21.5259 19.8796 21.5259C17.6799 21.5259 15.4803 21.5333 13.2806 21.5259C12.0299 21.521 11.3556 20.9497 11.3703 19.9442C11.385 18.9854 12.0667 18.4018 13.2487 18.3993L13.2512 18.3968Z" fill="#1D71B7"/>
<path d="M63.9665 20.3734C62.0071 20.3734 60.0502 20.3856 58.0909 20.3709C54.5032 20.3415 51.7738 17.7617 51.7027 14.1642C51.6194 10.0346 51.6807 5.90502 51.6807 1.77542C51.6807 1.00541 51.97 0.404605 52.7302 0.112786C53.461 -0.166771 54.0324 0.122595 54.5449 0.632665C60.1679 6.25815 65.791 11.8861 71.4238 17.5042C71.978 18.056 72.2257 18.6739 71.9216 19.4072C71.6151 20.1477 70.9848 20.3856 70.2099 20.3807C68.1304 20.366 66.0484 20.3758 63.9689 20.3758L63.9665 20.3734Z" fill="#1D71B7"/>
</svg>
