<svg width="92" height="92" viewBox="0 0 92 92" fill="none" xmlns="http://www.w3.org/2000/svg">
<path d="M91.8344 92H75.5894V59.4513C77.0813 59.7834 78.7389 59.7834 80.2308 60.2816C86.6957 62.2744 90.5083 66.7582 91.8344 73.5668C91.8344 73.7329 91.8344 74.065 92.0002 74.2311V92H91.8344Z" fill="#1D71B7"/>
<path d="M16.2451 59.7834V92H0C0 92 0 91.5018 0 91.1697C0 86.0216 0 80.8736 0 75.5596C0 67.0902 6.63064 60.1155 15.0847 59.6173C15.4162 59.6173 15.9135 59.6173 16.2451 59.6173V59.7834Z" fill="#1D71B7"/>
<path d="M33.319 91.9999H21.7153V59.7833C21.7153 59.7833 22.2126 59.7833 22.5442 59.7833C25.6937 59.7833 29.009 59.7833 32.1586 59.7833C32.8217 59.7833 32.9874 59.7833 33.1532 60.6137C34.1478 64.7653 35.1424 68.9169 36.3028 72.9025C36.3028 73.2346 36.3028 73.5667 36.3028 73.7328C35.3082 79.8772 34.3136 85.8555 33.319 91.9999Z" fill="#1D71B7"/>
<path d="M70.1187 59.6174V91.834H58.515C58.0177 89.343 57.6862 86.686 57.1889 84.195C56.6916 80.7076 56.0285 77.3863 55.5312 73.8989C55.5312 73.4007 55.5312 72.9026 55.5312 72.4044C56.5258 68.4188 57.5204 64.2672 58.515 60.2816C58.515 59.6174 58.8466 59.4513 59.5096 59.4513C62.825 59.4513 65.9745 59.4513 69.2898 59.4513H69.9529L70.1187 59.6174Z" fill="#1D71B7"/>
<path d="M38.7896 92C39.6184 86.6859 40.613 81.2058 41.4418 75.8917H50.3932C51.222 81.2058 52.2166 86.5199 53.0454 92H38.7896Z" fill="#1D71B7"/>
<path d="M50.5587 70.4115H41.2758C40.447 66.9242 39.4524 63.2707 38.6235 59.6173H53.211C52.3821 63.2707 51.3875 66.7581 50.5587 70.4115Z" fill="#1D71B7"/>
<path d="M53.8739 1.16245C52.0505 0.66426 50.0613 0.33213 48.0721 0H43.7622C42.6018 0.166065 41.4414 0.33213 40.2811 0.66426C26.191 3.81949 17.0738 17.1047 19.2288 31.3863C21.3837 46.3321 35.9712 56.6282 50.7243 53.9711C64.6487 51.4801 74.2631 38.8592 72.937 24.5776C71.9424 13.7834 64.3172 4.31769 54.0397 1.32852L53.8739 1.16245ZM62.1622 29.7256H43.2649V10.7942H48.5694V24.4116H62.1622V29.7256Z" fill="#1D71B7"/>
</svg>
