<svg width="18" height="18" viewBox="0 0 18 18" fill="none" xmlns="http://www.w3.org/2000/svg">
<path d="M3.82351 4.76465H2.88234C2.38311 4.76465 1.90433 4.96297 1.55132 5.31597C1.19832 5.66898 1 6.14776 1 6.64699V15.1175C1 15.6168 1.19832 16.0955 1.55132 16.4485C1.90433 16.8015 2.38311 16.9999 2.88234 16.9999H11.3529C11.8521 16.9999 12.3309 16.8015 12.6839 16.4485C13.0369 16.0955 13.2352 15.6168 13.2352 15.1175V14.1764" stroke="#1D71B7" stroke-width="2" stroke-linecap="round" stroke-linejoin="round"/>
<path d="M12.2942 2.88244L15.1178 5.70595M16.4213 4.3742C16.792 4.00352 17.0002 3.50077 17.0002 2.97656C17.0002 2.45234 16.792 1.9496 16.4213 1.57892C16.0506 1.20824 15.5479 1 15.0236 1C14.4994 1 13.9967 1.20824 13.626 1.57892L5.70605 9.47064V12.2941H8.52957L16.4213 4.3742Z" stroke="#1D71B7" stroke-width="2" stroke-linecap="round" stroke-linejoin="round"/>
</svg>
