<svg width="73" height="74" viewBox="0 0 73 74" fill="none" xmlns="http://www.w3.org/2000/svg">
<path d="M1.40246 27.7431C2.06002 29.3773 2.91097 30.8027 3.16819 32.3305C3.4022 33.7269 3.00767 35.2334 2.86069 36.6878C2.81427 37.1404 2.65955 37.5794 2.56866 38.0281C2.32884 39.2097 2.40427 40.3643 3.17786 41.3332C4.21061 42.629 4.44462 44.0795 4.33439 45.6828C4.20481 47.5742 4.69604 49.369 5.51605 51.0612C6.81763 53.7475 9.64125 54.2445 11.612 53.9776C12.7395 53.8249 13.5131 53.0957 14.0565 52.1191C15.0158 50.3901 15.2614 48.4716 15.507 46.5589C15.7256 44.8608 15.917 43.1589 16.0969 41.457C16.1665 40.7937 16.4257 40.2676 16.9556 39.8557C17.5261 39.4109 18.0831 38.9486 18.6362 38.4806C21.1446 36.359 21.5546 34.2316 19.9301 31.3867C19.5974 30.8046 19.6013 30.4101 19.9494 29.8434C21.2684 27.6967 22.3959 25.4629 22.6415 22.8965C22.9181 20.011 21.8215 17.7173 19.4582 16.1237C17.0755 14.5166 14.4956 14.3677 11.9117 15.6731C11.3393 15.9632 10.8229 16.0734 10.2814 15.8065C9.53874 15.4391 8.83477 14.9962 8.10566 14.5804C9.98356 11.8225 15.4722 7.08426 17.8027 6.15208C18.3655 8.2872 20.2066 9.20198 22.5699 8.44579C23.388 8.1847 24.1481 7.73408 24.9371 7.37823C25.5734 7.092 26.2 6.77096 26.8576 6.55048C27.5809 6.31067 28.3352 6.16755 29.1997 5.95288C28.8921 6.43831 28.662 6.82704 28.4087 7.2003C27.8478 8.02611 27.9948 8.8558 28.4222 9.66033C28.7916 10.3546 29.542 10.5751 30.3716 10.196C30.8919 9.95817 31.3773 9.62552 31.8357 9.27934C32.7737 8.56763 33.8354 8.32395 34.9687 8.44386C35.253 8.47287 35.6302 8.75136 35.7539 9.01245C36.3438 10.2753 36.8621 11.5711 37.4404 12.9365C35.2685 15.8394 35.7733 18.9744 37.2044 22.0688C37.9393 23.6585 38.9218 25.1322 39.794 26.6581C39.9101 26.8593 40.0338 27.0565 40.1808 27.3022C39.6509 27.4337 39.1906 27.5555 38.7284 27.6619C36.0286 28.2788 34.2125 29.8956 33.4061 32.5375C32.9284 34.1001 32.5551 35.7015 32.2437 37.3047C32.0233 38.4419 32.4487 39.4959 33.0734 40.4475C33.7948 41.546 34.8159 42.277 35.9744 42.8804C37.5293 43.6927 39.1268 44.474 40.5483 45.4855C43.3352 47.4698 43.3429 49.8408 40.6933 52.0088C40.1789 52.4305 39.5929 52.7631 39.0011 53.1634C39.0011 52.1771 39.0727 51.2952 38.9895 50.4288C38.6104 46.4776 34.9243 43.6366 30.7642 44.0486C26.962 44.4257 23.9876 47.9939 24.2931 51.7922C24.5194 54.5985 25.7475 57.0179 27.2212 59.327C27.6312 59.9711 27.6679 60.528 27.2889 61.114C26.5017 62.3267 25.6643 63.5025 24.8695 64.7093C24.5136 65.2509 24.1461 65.8001 23.9044 66.3958C23.1482 68.2659 24.1268 69.8595 26.1382 70.1013C27.2154 70.2309 28.2423 70.0375 29.2538 69.6449C29.5478 69.5308 29.981 69.4805 30.2421 69.612C32.9361 70.9832 35.6321 70.871 38.3435 69.7048C39.3608 69.2677 40.3549 69.2871 41.3528 69.7435C41.6371 69.8731 41.9369 69.9717 42.2193 70.109C44.1107 71.0354 45.8687 70.7511 47.5087 69.5114C48.027 69.1188 48.5415 68.7127 49.0017 68.2543C51.6822 65.5854 54.6915 63.3343 57.8304 61.2494C58.6291 60.7195 59.511 60.3115 60.3639 59.8647C62.9381 58.5206 64.8198 56.5189 66.0092 53.8809C66.4328 52.943 66.4173 51.9779 66.0015 51.0051C65.518 49.8776 64.8856 48.8738 63.9534 48.0674C63.6072 47.7695 63.2726 47.4582 63.0096 47.2222C63.5975 45.6731 64.2377 44.2168 64.6999 42.7044C65.1737 41.1572 65.1602 39.5636 64.6109 38.001C67.9954 38.2079 70.1615 40.5616 72.7221 42.5942C70.1305 56.4203 62.6305 66.6433 49.1391 71.4996C34.3092 76.8374 20.9454 73.5767 9.94682 62.3054C-0.307182 51.798 -1.56814 37.4769 1.40246 27.7431Z" fill="#1D71B7"/>
<path d="M48.613 24.3064C48.7968 24.5134 48.9689 24.7145 49.1488 24.9079C50.1448 25.9832 51.6784 25.8749 52.9181 24.8441C53.5718 24.3006 54.0147 23.4729 54.4576 22.7186C54.736 22.2429 55.0455 21.9315 55.5889 22.0243C56.3219 22.15 57.0607 22.2931 57.7666 22.5233C60.2402 23.3317 62.6693 23.3684 65.1235 22.4015C66.4173 21.8909 67.7827 21.5602 69.1849 21.127C72.1767 27.248 73.3971 33.636 72.8904 40.463C72.6757 40.3276 72.5152 40.2676 72.4108 40.1555C70.1248 37.6799 67.131 36.6201 63.965 35.8775C63.5512 35.7808 63.1295 35.5313 62.8124 35.2431C60.6482 33.2647 58.1399 32.6361 55.3704 33.5161C52.6647 34.3767 50.9203 36.2681 50.3575 39.0879C49.9572 41.0973 50.4639 43.0119 51.2452 44.8628C52.2567 47.2551 53.6859 49.3999 55.1944 51.4983C55.7146 52.2235 56.231 52.9507 56.7629 53.6682C57.3373 54.4418 57.9252 54.4437 58.4938 53.6527C59.6619 52.0301 60.8126 50.394 61.9982 48.723C63.2649 49.5875 64.1952 50.7266 64.5491 52.2371C64.6458 52.6548 64.4775 53.2157 64.2551 53.6121C63.0773 55.7144 61.4528 57.308 59.2925 58.5012C56.8789 59.8357 54.5987 61.4409 52.3688 63.0751C50.7791 64.2394 49.3712 65.6473 47.8781 66.9431C47.4604 67.3067 47.0446 67.6761 46.6036 68.0107C45.4046 68.9158 44.101 69.1401 42.7376 68.44C40.9003 67.4982 39.1094 67.4401 37.1832 68.2814C35.1989 69.1478 33.1431 69.115 31.1685 68.0996C30.2556 67.6297 29.4008 67.5736 28.4203 68.059C27.8149 68.3588 27.0201 68.3742 26.3161 68.351C25.471 68.322 25.1944 67.7844 25.5135 66.9992C25.6295 66.711 25.7804 66.4287 25.9583 66.1753C26.9408 64.777 27.9368 63.3904 28.9579 61.9592C29.5575 62.7889 30.1705 63.6457 30.7933 64.4947C31.3735 65.2837 31.9653 65.305 32.5203 64.5334C34.6013 61.6362 36.8003 58.8146 38.1598 55.4668C38.2256 55.3044 38.4325 55.1497 38.6066 55.0916C41.3432 54.1885 43.3739 52.5098 44.3177 49.7326C44.8166 48.2608 44.3235 46.9263 43.3816 45.7543C42.3353 44.4528 40.9719 43.538 39.531 42.7412C38.5834 42.2171 37.5622 41.8167 36.6455 41.2443C35.9029 40.7801 35.1892 40.2154 34.6071 39.5675C33.994 38.8848 33.7929 38.0029 34.0346 37.0591C34.3518 35.8233 34.609 34.572 34.9533 33.3439C35.578 31.1199 37.0555 29.8028 39.3125 29.2884C41.289 28.8358 41.2813 28.801 42.4649 30.414C43.1457 31.3384 43.6814 31.3365 44.3621 30.3753C45.7604 28.3833 47.1509 26.3913 48.613 24.3064Z" fill="#1D71B7"/>
<path d="M18.3731 32.286C19.2956 33.8216 19.2144 35.2721 18.1333 36.506C17.7078 36.9914 17.2301 37.4672 16.6906 37.8114C14.9538 38.9177 14.3698 40.5461 14.1899 42.5091C13.9752 44.855 13.5536 47.1816 13.219 49.5178C13.2016 49.6358 13.1688 49.7538 13.1262 49.866C12.7433 50.9103 12.43 52.119 11.1168 52.2641C9.55801 52.4362 8.10945 52.0165 7.23142 50.5661C6.3882 49.1755 5.984 47.6013 6.06329 46.0057C6.16386 43.9634 5.97627 42.0739 4.64762 40.4088C4.13898 39.7725 4.15252 38.9873 4.30143 38.1943C4.56639 36.7748 4.80427 35.3494 5.01507 33.9202C5.17366 32.8469 4.99187 31.8141 4.54705 30.8181C4.13704 29.8937 3.78312 28.946 3.38279 28.0177C3.17198 27.5323 3.01533 26.9579 2.65174 26.6214C1.8414 25.871 2.09669 25.1612 2.43127 24.318C3.62454 21.3261 5.11951 18.5102 7.02062 15.9167C7.87737 16.4621 8.70125 16.9882 9.54447 17.5258C7.01095 20.742 7.75747 24.0878 9.32013 27.4278C10.6894 30.3501 12.6505 32.8991 14.5438 35.4829C15.0157 36.1269 15.5959 36.1018 16.0871 35.4442C16.8511 34.425 17.5841 33.3806 18.3731 32.286Z" fill="#1D71B7"/>
<path d="M50.723 15.8529C49.3615 10.4919 43.3274 8.27744 38.7458 11.5536C38.3629 10.6853 37.8891 9.86911 37.6396 8.99108C36.9414 6.52525 35.2589 6.45563 33.5376 6.78247C32.5358 6.972 31.6055 7.57347 30.6579 8.01829C30.3601 8.15754 30.1048 8.39155 29.7044 8.49792C29.7953 8.30645 29.8727 8.10919 29.9771 7.92546C30.2518 7.44583 30.6057 7.00101 30.8068 6.49237C31.2071 5.47897 30.6734 4.63575 29.5884 4.51391C28.1901 4.35919 26.846 4.6106 25.5676 5.17726C24.7322 5.54859 23.8967 5.93345 23.1018 6.38214C22.3031 6.83082 21.4637 6.97587 20.5934 6.80955C20.2511 6.74379 19.7154 6.45176 19.6883 6.21581C19.6303 5.70137 19.5181 5.07089 20.224 4.72858C23.0322 3.35932 25.9486 2.30723 29.0101 1.69028C37.8891 -0.104455 46.3135 1.1507 54.2641 5.51378C54.4711 5.62788 54.6741 5.75359 54.7863 5.81935C54.6761 6.99328 54.4923 8.08791 54.4885 9.18448C54.4807 10.7762 55.1402 11.6194 56.6429 12.1435C57.7763 12.54 58.6524 13.2304 59.0295 14.3811C59.1629 14.7911 59.1726 15.4409 58.9347 15.7175C58.7026 15.9863 58.0335 16.0811 57.6351 15.9708C56.1498 15.5608 54.6567 15.3868 53.127 15.5357C52.336 15.6111 51.5527 15.7407 50.723 15.8529Z" fill="#1D71B7"/>
<path d="M56.4051 6.80371C61.5128 10.165 65.4213 14.3675 68.3861 19.6106C67.5313 19.8697 66.7094 20.0477 65.9435 20.3629C62.9768 21.5832 60.01 21.7206 57.0143 20.4905C56.8151 20.4093 56.5966 20.3764 56.3858 20.3261C54.3841 19.862 53.5834 20.301 52.8079 22.2234C52.659 22.5928 52.425 22.9564 52.1465 23.2387C51.1911 24.2077 49.9649 23.9176 49.5201 22.6315C49.4679 22.4806 49.5607 22.2717 49.6091 22.0977C49.9823 20.7574 50.3459 19.4152 50.7559 18.0866C50.8217 17.8739 51.077 17.6108 51.282 17.5702C53.1869 17.197 55.0958 16.9765 56.9969 17.636C57.3315 17.752 57.7086 17.7791 58.0683 17.7907C60.1222 17.8622 61.3716 16.1874 60.7778 14.1161C60.2866 12.3987 59.1243 11.2635 57.4901 10.6021C56.3161 10.1263 56.1633 9.95031 56.204 8.69515C56.2194 8.12462 56.3219 7.5599 56.4051 6.80371Z" fill="#1D71B7"/>
<path d="M15.2943 33.6031C13.0102 30.352 10.5637 27.306 9.79402 23.3645C9.19061 20.2779 10.9834 17.4523 13.9502 16.7271C16.7854 16.0347 19.7734 17.6631 20.6437 20.392C21.1098 21.8502 20.9164 23.2949 20.4696 24.7222C19.727 27.0971 18.408 29.1665 17.0136 31.1953C16.4721 31.9824 15.9035 32.7502 15.2943 33.6031ZM18.8663 22.2099C18.8702 20.2083 17.3018 18.5934 15.3388 18.576C13.3351 18.5586 11.7222 20.1754 11.728 22.1964C11.7338 24.171 13.3409 25.7569 15.3291 25.7569C17.2631 25.753 18.8644 24.1497 18.8663 22.2099Z" fill="#1D71B7"/>
<path d="M58.3989 34.9317C55.3819 34.5681 52.6898 36.4538 52.1193 39.3373C51.7712 41.0953 52.245 42.7334 52.9199 44.3251C54.0745 47.0559 55.8151 49.427 57.693 51.9953C59.0043 49.9433 60.302 48.0345 61.474 46.0483C62.4313 44.4237 63.1198 42.6754 63.2223 40.7453C63.3731 37.8346 61.2612 35.2779 58.3989 34.9317ZM57.6273 44.0505C55.6256 44.0408 54.0301 42.4453 54.0378 40.4649C54.0455 38.4748 55.6449 36.9005 57.6485 36.9063C59.6386 36.9121 61.2032 38.5115 61.1935 40.5268C61.1839 42.4762 59.5825 44.0601 57.6273 44.0505Z" fill="#1D71B7"/>
<path d="M32.4274 45.7853C29.4955 45.4623 26.8575 47.2164 26.2193 49.9259C25.8074 51.6723 26.2097 53.3278 26.8653 54.933C28.0237 57.7702 29.8088 60.2283 31.6674 62.7483C33.4795 60.2612 35.2452 57.8534 36.4114 55.0723C36.9472 53.7939 37.3069 52.4807 37.2663 51.0767C37.1889 48.3884 35.0847 46.0773 32.4274 45.7853ZM31.6751 54.904C29.6734 54.8944 28.0895 53.3046 28.0972 51.3145C28.105 49.3148 29.6928 47.7444 31.6983 47.7541C33.6884 47.7637 35.2414 49.3574 35.2356 51.3803C35.2278 53.3317 33.6284 54.9137 31.6751 54.904Z" fill="#1D71B7"/>
<path d="M45.7217 12.2227C43.3448 11.1552 40.5831 11.8262 38.9431 13.8859C37.6415 15.5221 37.5525 17.3787 38.067 19.303C39.0243 22.8809 41.26 25.7413 43.3893 28.7448C45.1125 26.4027 46.8086 24.1206 47.94 21.4942C48.3558 20.5292 48.6923 19.5061 48.8973 18.4772C49.433 15.7774 48.1411 13.3096 45.7217 12.2227ZM43.4048 20.8908C41.3954 20.8812 39.8192 19.3011 39.8269 17.3072C39.8366 15.3016 41.4147 13.7448 43.428 13.7525C45.4219 13.7602 46.973 15.348 46.9653 17.3749C46.9575 19.3301 45.3678 20.9005 43.4048 20.8908Z" fill="#1D71B7"/>
<path d="M43.4222 15.4912C42.3798 15.4854 41.5791 16.2648 41.5675 17.2957C41.5559 18.3323 42.3372 19.1349 43.3719 19.1523C44.3969 19.1697 45.215 18.3729 45.2247 17.3459C45.2363 16.3074 44.4453 15.4951 43.4222 15.4912Z" fill="#1D71B7"/>
<path d="M57.6059 42.3116C56.5809 42.2981 55.7725 41.48 55.7764 40.4647C55.7822 39.4474 56.5964 38.6487 57.6291 38.6467C58.6542 38.6448 59.4568 39.4571 59.451 40.4898C59.4471 41.5129 58.6232 42.3252 57.6059 42.3116Z" fill="#1D71B7"/>
<path d="M17.1257 22.1501C17.1315 23.1789 16.3173 24.0144 15.3116 24.0164C14.2886 24.0183 13.4763 23.206 13.4705 22.1791C13.4647 21.1541 14.2634 20.3321 15.2846 20.3128C16.2806 20.2954 17.1199 21.1328 17.1257 22.1501Z" fill="#1D71B7"/>
<path d="M31.6964 49.4927C32.7156 49.5005 33.5085 50.3224 33.4969 51.3571C33.4853 52.3782 32.6518 53.1886 31.6384 53.1673C30.6153 53.146 29.8262 52.328 29.8398 51.2991C29.8494 50.2683 30.6559 49.485 31.6964 49.4927Z" fill="#1D71B7"/>
</svg>
