<svg width="22" height="26" viewBox="0 0 22 26" fill="none" xmlns="http://www.w3.org/2000/svg">
<path d="M12.4945 25.9938C9.55141 25.9938 6.60899 25.9907 3.66587 26C3.44996 26 3.39114 25.9451 3.40152 25.7039C3.4209 25.2323 3.41398 24.7591 3.4036 24.2867C3.39945 24.105 3.43474 24.0401 3.61328 24.0417C6.98682 24.0749 10.3611 24.0958 13.7346 24.1298C15.4335 24.1468 16.731 23.2871 17.3531 21.703C17.542 21.2213 17.6431 20.7172 17.6472 20.1907C17.6611 18.1953 17.6784 16.1991 17.6853 14.2037C17.6936 11.8488 16.1255 10.0946 14.0176 10.0822C10.5749 10.0621 7.13145 10.0366 3.68871 10.0211C3.47557 10.0204 3.40014 9.98093 3.40152 9.71112C3.4119 6.59699 3.41121 3.48287 3.40291 0.368743C3.40291 0.132942 3.44581 0.0695463 3.66518 0.0703195C7.08232 0.0795969 10.5002 0.0788238 13.9173 0.0703195C14.1291 0.0703195 14.1851 0.120572 14.1837 0.364105C14.1747 2.94787 14.181 5.53163 14.1726 8.1154C14.172 8.35352 14.219 8.41382 14.4363 8.41228C16.749 8.40222 19.0617 8.40996 21.3744 8.39991C21.5889 8.39913 21.6401 8.45402 21.6394 8.69524C21.6325 14.3645 21.6325 20.0338 21.6394 25.7031C21.6394 25.9435 21.5903 25.9992 21.3751 25.9992C18.4154 25.9899 15.4549 25.993 12.4952 25.993L12.4945 25.9938Z" fill="#1D71B7"/>
<path d="M14.0299 11.01C12.1663 11.0031 10.3027 11.0085 8.43911 11.0085C8.43911 10.9853 8.43911 10.9613 8.43911 10.9381C6.59283 10.9381 4.74585 10.9319 2.89957 10.9397C1.22145 10.9466 0.0512603 12.2532 0.0388041 14.1149C0.0256559 16.0338 0.00904769 17.9526 5.1571e-05 19.8708C-0.00894455 21.7688 1.15986 23.0916 2.85805 23.1109C4.24691 23.1271 5.63647 23.1418 7.02533 23.1526C9.33803 23.1712 11.65 23.1952 13.9627 23.199C15.5855 23.2021 16.8 21.8901 16.818 20.129C16.8387 18.1428 16.856 16.1575 16.8546 14.1713C16.8533 12.3444 15.6581 11.0154 14.0292 11.01H14.0299ZM6.1361 16.9051C5.97694 17.4099 5.6164 17.6712 5.13545 17.7362C4.80813 17.7802 4.47943 17.7949 4.15418 17.7686C3.90921 17.7493 3.86977 17.8514 3.88015 18.091C3.89745 18.4954 3.8753 18.9013 3.88914 19.3056C3.89537 19.4904 3.8414 19.5259 3.68639 19.5259C3.04835 19.5275 3.04835 19.5337 3.04835 18.8131C3.04835 17.5986 3.05251 16.384 3.0442 15.1694C3.04282 14.9568 3.07396 14.8617 3.29056 14.881C3.56528 14.9058 3.84209 14.8872 4.1784 14.8872C4.49742 14.898 4.87664 14.8733 5.25517 14.9321C5.53474 14.9754 5.76241 15.113 5.93957 15.3519C6.28903 15.8235 6.30495 16.3677 6.13541 16.9066L6.1361 16.9051ZM10.1982 18.4281C9.95184 19.1015 9.48543 19.4633 8.84809 19.5027C8.25503 19.5399 7.65852 19.512 7.06339 19.5244C6.91807 19.5275 6.91945 19.4463 6.92015 19.3296C6.92291 18.6168 6.92153 17.9039 6.92153 17.1903C6.92153 16.4868 6.92084 15.7833 6.92222 15.0805C6.92222 14.9947 6.88485 14.8803 7.03294 14.8841C7.66198 14.8996 8.2924 14.8493 8.92075 14.9135C9.60722 14.9839 10.0418 15.4284 10.248 16.1389C10.4695 16.902 10.4743 17.6735 10.1989 18.4273L10.1982 18.4281ZM13.4839 15.6766C13.0354 15.6766 12.587 15.6828 12.1386 15.6727C11.9981 15.6696 11.9386 15.7013 11.9483 15.8745C11.9642 16.1621 11.8618 16.5386 11.9898 16.7157C12.1234 16.9004 12.4742 16.7636 12.7296 16.7729C12.9967 16.7829 13.2638 16.779 13.5316 16.7729C13.6375 16.7705 13.6783 16.8015 13.6866 16.9321C13.7274 17.5514 13.7323 17.5506 13.1731 17.5506C12.8368 17.5506 12.5005 17.5599 12.1642 17.5468C12.0009 17.5406 11.9421 17.5831 11.9469 17.7795C11.9601 18.2897 11.9469 18.8008 11.9545 19.311C11.9566 19.4649 11.9296 19.5228 11.7753 19.5252C11.1165 19.536 11.1172 19.5422 11.1172 18.8085V17.1903C11.1172 16.5061 11.1234 15.8227 11.113 15.1385C11.1103 14.946 11.1421 14.8764 11.3317 14.8795C12.1331 14.8926 12.9351 14.8911 13.7371 14.8803C13.9122 14.8779 13.9724 14.9197 13.9683 15.1292C13.9579 15.675 13.9683 15.675 13.4839 15.675V15.6766Z" fill="#1D71B7"/>
<path d="M7.75551 17.1972C7.75551 16.755 7.76035 16.3127 7.75274 15.8705C7.75066 15.7267 7.77834 15.6641 7.9202 15.6741C8.16033 15.6911 8.40184 15.6811 8.64266 15.695C9.06963 15.7205 9.35612 15.9702 9.45508 16.4357C9.56719 16.966 9.56234 17.5064 9.44816 18.036C9.35197 18.4821 9.13883 18.6792 8.72224 18.7218C8.4572 18.7488 8.1894 18.7341 7.92297 18.7519C7.7818 18.7612 7.74997 18.7001 7.75205 18.554C7.75897 18.1025 7.75481 17.6502 7.75481 17.1987L7.75551 17.1972Z" fill="#1D71B7"/>
<path d="M3.88358 16.3182C3.88358 15.8847 4.08241 15.6727 4.48009 15.6819C4.6005 15.685 4.72091 15.685 4.84063 15.6989C5.14788 15.7345 5.35271 15.9719 5.36724 16.2973C5.38108 16.6097 5.20877 16.8718 4.91882 16.9406C4.61434 17.0125 4.30293 16.9761 3.9943 16.9831C3.89949 16.9854 3.8815 16.9267 3.88288 16.8362C3.88634 16.6638 3.88358 16.4906 3.88358 16.3182Z" fill="#1D71B7"/>
<path d="M14.9461 0C14.9419 0.0773119 14.9384 0.112875 14.9384 0.147666C14.9384 2.49872 14.9412 4.85055 14.9336 7.20161C14.9336 7.40416 15.0083 7.40725 15.1453 7.40725C17.2241 7.40339 19.3029 7.40494 21.3817 7.40262C21.4323 7.40262 21.5028 7.44591 21.534 7.36009C19.3486 4.91858 17.1646 2.47939 14.9461 0Z" fill="#1D71B7"/>
<path d="M21.9983 5.46122C21.9997 5.47128 22.0004 5.48133 21.9941 5.48983V5.462C21.9941 5.462 21.9962 5.45968 21.9983 5.46122Z" fill="#1D71B7"/>
<path d="M21.9941 5.52856C22.0011 5.53707 22.0004 5.54712 21.9983 5.55717H21.9962H21.9941V5.52934V5.52856Z" fill="#1D71B7"/>
</svg>
