<svg width="16" height="11" viewBox="0 0 16 11" fill="none" xmlns="http://www.w3.org/2000/svg">
<path d="M1.03652 4.79214C1.22967 4.79424 1.46028 4.92385 1.66591 5.12072C2.91293 6.31385 4.16509 7.50138 5.40844 8.69872C5.54504 8.82973 5.6082 8.83113 5.74406 8.69872C8.59723 5.91381 11.457 3.13521 14.3124 0.3524C14.5738 0.0980796 14.8669 -0.0546525 15.2436 0.0182105C15.5954 0.0861693 15.8407 0.290046 15.9516 0.620732C16.0683 0.971735 15.9692 1.2772 15.7055 1.53502C15.0945 2.13334 14.4806 2.72745 13.8673 3.32367C11.3564 5.76598 8.84399 8.20829 6.33526 10.6527C6.04003 10.9407 5.70881 11.078 5.2902 10.9547C5.13157 10.9077 5.00158 10.8166 4.88481 10.7053C3.36239 9.2522 1.83923 7.79984 0.317542 6.34678C0.0157012 6.05883 -0.0856468 5.72324 0.0773912 5.33581C0.217663 5.00232 0.556958 4.79074 1.03579 4.79074L1.03652 4.79214Z" fill="#24A56F"/>
</svg>
