<svg width="18" height="18" viewBox="0 0 18 18" fill="none" xmlns="http://www.w3.org/2000/svg">
<path fill-rule="evenodd" clip-rule="evenodd" d="M9 0C9.1498 9.36103e-05 9.29766 0.0338405 9.43267 0.0987475C9.56768 0.163655 9.68638 0.258063 9.78 0.375L13.78 5.375C13.867 5.47687 13.9326 5.59517 13.973 5.72289C14.0134 5.8506 14.0277 5.98513 14.0151 6.11849C14.0025 6.25184 13.9632 6.38131 13.8996 6.49919C13.836 6.61708 13.7494 6.72099 13.6448 6.80475C13.5403 6.88851 13.42 6.95041 13.2911 6.98679C13.1622 7.02316 13.0273 7.03327 12.8944 7.0165C12.7615 6.99974 12.6333 6.95644 12.5174 6.88919C12.4016 6.82194 12.3005 6.7321 12.22 6.625L10 3.85V11C10 11.2652 9.89464 11.5196 9.70711 11.7071C9.51957 11.8946 9.26522 12 9 12C8.73478 12 8.48043 11.8946 8.29289 11.7071C8.10536 11.5196 8 11.2652 8 11V3.85L5.78 6.626C5.69954 6.7331 5.59839 6.82294 5.48255 6.89019C5.36671 6.95744 5.23853 7.00074 5.10564 7.0175C4.97274 7.03427 4.83783 7.02416 4.70891 6.98779C4.58 6.95141 4.4597 6.88951 4.35517 6.80575C4.25064 6.72199 4.164 6.61808 4.1004 6.50019C4.03679 6.38231 3.99752 6.25284 3.98491 6.11949C3.97231 5.98613 3.98662 5.8516 4.027 5.72389C4.06739 5.59617 4.13302 5.47787 4.22 5.376L8.22 0.376C8.31353 0.25888 8.43218 0.164281 8.56719 0.0991981C8.70221 0.0341153 8.85012 0.000213602 9 0ZM6 11V10H2C1.46957 10 0.960859 10.2107 0.585786 10.5858C0.210714 10.9609 0 11.4696 0 12V16C0 16.5304 0.210714 17.0391 0.585786 17.4142C0.960859 17.7893 1.46957 18 2 18H16C16.5304 18 17.0391 17.7893 17.4142 17.4142C17.7893 17.0391 18 16.5304 18 16V12C18 11.4696 17.7893 10.9609 17.4142 10.5858C17.0391 10.2107 16.5304 10 16 10H12V11C12 11.7957 11.6839 12.5587 11.1213 13.1213C10.5587 13.6839 9.79565 14 9 14C8.20435 14 7.44129 13.6839 6.87868 13.1213C6.31607 12.5587 6 11.7957 6 11ZM14 13C13.7348 13 13.4804 13.1054 13.2929 13.2929C13.1054 13.4804 13 13.7348 13 14C13 14.2652 13.1054 14.5196 13.2929 14.7071C13.4804 14.8946 13.7348 15 14 15H14.01C14.2752 15 14.5296 14.8946 14.7171 14.7071C14.9046 14.5196 15.01 14.2652 15.01 14C15.01 13.7348 14.9046 13.4804 14.7171 13.2929C14.5296 13.1054 14.2752 13 14.01 13H14Z" fill="#1D71B7"/>
</svg>
