<svg width="22" height="21" viewBox="0 0 22 21" fill="none" xmlns="http://www.w3.org/2000/svg">
<path d="M16.3859 6.85293C16.0356 4.81783 14.9351 2.988 13.3016 1.72465C11.6682 0.461301 9.6204 -0.143757 7.56262 0.0289194C5.50483 0.201596 3.58656 1.13946 2.18646 2.65737C0.786373 4.17527 0.00621562 6.16292 9.7045e-08 8.22793C-0.000183929 9.4278 0.261361 10.6133 0.766398 11.7017C1.27143 12.7901 2.00781 13.7552 2.92416 14.5298C3.84052 15.3044 4.91481 15.8698 6.07212 16.1865C7.22943 16.5033 8.44191 16.5638 9.625 16.3638V10.9779C9.625 10.4967 9.7075 10.0333 9.85875 9.60293H7.56662C7.38429 9.60293 7.20942 9.53049 7.08049 9.40156C6.95156 9.27263 6.87912 9.09776 6.87912 8.91543V4.79043C6.87912 4.60809 6.95156 4.43322 7.08049 4.30429C7.20942 4.17536 7.38429 4.10293 7.56662 4.10293C7.74896 4.10293 7.92383 4.17536 8.05276 4.30429C8.18169 4.43322 8.25412 4.60809 8.25412 4.79043V8.22793H10.3125C10.4216 8.22884 10.5224 8.25176 10.615 8.29668C11.0023 7.84389 11.4831 7.48038 12.0242 7.23115C12.5654 6.98192 13.1542 6.85289 13.75 6.85293H16.3859ZM19.25 8.22793H13.75C13.0207 8.22793 12.3212 8.51766 11.8055 9.03338C11.2897 9.54911 11 10.2486 11 10.9779V17.8529C11 18.5823 11.2897 19.2817 11.8055 19.7975C12.3212 20.3132 13.0207 20.6029 13.75 20.6029H19.25C19.9793 20.6029 20.6788 20.3132 21.1945 19.7975C21.7103 19.2817 22 18.5823 22 17.8529V10.9779C22 10.2486 21.7103 9.54911 21.1945 9.03338C20.6788 8.51766 19.9793 8.22793 19.25 8.22793ZM18.5625 17.8529H14.4375C14.2552 17.8529 14.0803 17.7805 13.9514 17.6516C13.8224 17.5226 13.75 17.3478 13.75 17.1654C13.75 16.9831 13.8224 16.8082 13.9514 16.6793C14.0803 16.5504 14.2552 16.4779 14.4375 16.4779H18.5625C18.7448 16.4779 18.9197 16.5504 19.0486 16.6793C19.1776 16.8082 19.25 16.9831 19.25 17.1654C19.25 17.3478 19.1776 17.5226 19.0486 17.6516C18.9197 17.7805 18.7448 17.8529 18.5625 17.8529ZM18.5625 15.1029H14.4375C14.2552 15.1029 14.0803 15.0305 13.9514 14.9016C13.8224 14.7726 13.75 14.5978 13.75 14.4154C13.75 14.2331 13.8224 14.0582 13.9514 13.9293C14.0803 13.8004 14.2552 13.7279 14.4375 13.7279H18.5625C18.7448 13.7279 18.9197 13.8004 19.0486 13.9293C19.1776 14.0582 19.25 14.2331 19.25 14.4154C19.25 14.5978 19.1776 14.7726 19.0486 14.9016C18.9197 15.0305 18.7448 15.1029 18.5625 15.1029ZM18.5625 12.3529H14.4375C14.2552 12.3529 14.0803 12.2805 13.9514 12.1516C13.8224 12.0226 13.75 11.8478 13.75 11.6654C13.75 11.4831 13.8224 11.3082 13.9514 11.1793C14.0803 11.0504 14.2552 10.9779 14.4375 10.9779H18.5625C18.7448 10.9779 18.9197 11.0504 19.0486 11.1793C19.1776 11.3082 19.25 11.4831 19.25 11.6654C19.25 11.8478 19.1776 12.0226 19.0486 12.1516C18.9197 12.2805 18.7448 12.3529 18.5625 12.3529Z" fill="#1D71B7"/>
</svg>
