<svg width="69" height="96" viewBox="0 0 69 96" fill="none" xmlns="http://www.w3.org/2000/svg">
<path d="M68.5662 10.708C68.5615 4.44062 64.1169 0.00750788 57.8403 0.00519776C42.1292 -0.00173259 26.4204 -0.00173259 10.7093 0.00519776C4.44422 0.00750788 0.0134164 4.45448 0.00417592 10.7288C-0.00506455 16.0836 0.00417592 21.4408 0.00417592 26.7956C0.0018658 46.3277 -0.00506455 65.8574 0.00648603 85.3872C0.00879615 91.3218 4.40495 95.9582 10.1895 95.9744C26.291 96.0206 42.3948 95.9906 58.4964 95.9883C59.4874 95.9883 60.4438 95.8058 61.652 95.3576C59.4805 94.6091 58.0482 93.2346 56.6991 91.7746C56.244 91.2803 55.8536 91.2248 55.2114 91.4327C51.2611 92.7079 47.2253 92.9297 43.1664 92.0772C30.872 89.4945 22.8166 78.2812 24.1796 65.7049C25.8729 50.0816 42.7344 40.2313 57.1842 46.4062C61.9153 48.4276 65.6508 51.6017 68.5685 56.2104V55.1593C68.5685 40.3422 68.5754 25.5251 68.5662 10.708ZM16.3136 13.8266C16.6185 13.7481 16.9466 13.7204 17.2631 13.7204C28.6081 13.7157 39.9507 13.7111 51.2957 13.7204C53.1785 13.7204 54.6454 15.0117 54.8394 16.7628C55.0289 18.4838 53.8761 20.1055 52.1551 20.4867C51.7439 20.5768 51.305 20.5676 50.8799 20.5699C45.3495 20.5745 39.8214 20.5722 34.2909 20.5722C28.5826 20.5722 22.8767 20.5837 17.1684 20.5629C15.3665 20.556 13.918 19.23 13.7332 17.5205C13.5484 15.8226 14.6295 14.2656 16.3136 13.8266ZM20.7768 54.8382C19.4993 54.8959 18.2125 54.8982 16.935 54.8382C15.1054 54.7527 13.6939 53.1887 13.7193 51.3707C13.7471 49.5919 15.1447 48.118 16.9373 48.0141C17.5749 47.9771 18.2171 48.0071 18.8594 48.0071C19.4993 48.0071 20.1415 47.9748 20.7814 48.0141C22.5625 48.1203 23.974 49.6104 23.9994 51.3776C24.0248 53.1933 22.6087 54.755 20.7791 54.8405L20.7768 54.8382ZM52.2613 37.5977C51.9564 37.6786 51.6284 37.7086 51.3119 37.7086C39.9669 37.7132 28.6242 37.7179 17.2792 37.7086C15.3965 37.7086 13.9249 36.4127 13.7309 34.6685C13.5392 32.9382 14.6827 31.3235 16.4083 30.9423C16.8195 30.8522 17.2584 30.8614 17.6835 30.8614C23.2139 30.8568 28.742 30.8591 34.2725 30.8591C39.9808 30.8591 45.6868 30.8476 51.3951 30.8661C53.1993 30.873 54.6431 32.1874 54.8371 33.9016C55.0266 35.5879 53.9408 37.1588 52.2613 37.6001V37.5977Z" fill="#1D71B7"/>
</svg>
