<svg width="15" height="16" viewBox="0 0 15 16" fill="none" xmlns="http://www.w3.org/2000/svg">
	<path d="M12.3773 0C12.5895 0.0602539 12.8089 0.101141 13.0117 0.182914C14.6697 0.849293 15.1343 2.88932 13.9281 4.21921C12.8635 5.39273 11.7882 6.55548 10.7172 7.72254C8.85274 9.75468 6.99049 11.7882 5.11888 13.8139C4.96927 13.976 4.77218 14.1145 4.57078 14.2056C3.6321 14.6295 2.68551 15.0362 1.73891 15.4437C1.18002 15.684 0.652778 15.5749 0.282341 15.1417C-0.0204823 14.788 -0.0636401 14.3777 0.0766225 13.9495C0.408937 12.9374 0.747006 11.9267 1.09514 10.9189C1.14837 10.7639 1.24476 10.6126 1.35625 10.4906C4.27946 7.29933 7.20915 4.11233 10.1331 0.920307C10.5719 0.441862 11.0869 0.117639 11.7386 0.0272577C11.7565 0.0251058 11.7724 0.00932501 11.7889 0C11.9853 0 12.1809 0 12.3773 0ZM5.07429 11.3177C5.14909 11.2381 5.20735 11.1771 5.26418 11.1154C7.21707 8.98788 9.16995 6.85962 11.1221 4.73208C11.6292 4.17976 12.1378 3.62886 12.642 3.07367C12.9757 2.70569 12.9606 2.24159 12.6125 1.92884C12.273 1.62399 11.8184 1.65483 11.4775 2.00703C11.4321 2.05365 11.389 2.10243 11.3444 2.15049C9.28144 4.39854 7.2185 6.64586 5.15557 8.89391C4.74197 9.34438 4.3291 9.79557 3.90687 10.2568C4.29601 10.6104 4.6758 10.9562 5.07357 11.3177H5.07429ZM2.07123 13.4259C2.72075 13.1411 3.31273 12.8814 3.93348 12.6096C3.51485 12.2294 3.13147 11.8808 2.71644 11.5042C2.49849 12.1519 2.29349 12.7624 2.07123 13.4259Z" fill="#1D71B7" />
</svg>
