<svg width="42" height="42" viewBox="0 0 42 42" fill="none" xmlns="http://www.w3.org/2000/svg">
	<g filter="url(#filter0_d_46_6344)">
		<rect x="10" y="8" width="22" height="22" rx="5" fill="#1D71B7" />
	</g>
	<path d="M21.7071 12.2929C21.3166 11.9024 20.6834 11.9024 20.2929 12.2929L13.9289 18.6569C13.5384 19.0474 13.5384 19.6805 13.9289 20.0711C14.3195 20.4616 14.9526 20.4616 15.3431 20.0711L21 14.4142L26.6569 20.0711C27.0474 20.4616 27.6805 20.4616 28.0711 20.0711C28.4616 19.6805 28.4616 19.0474 28.0711 18.6569L21.7071 12.2929ZM22 25L22 13L20 13L20 25L22 25Z" fill="#B4D3E0" />
	<defs>
		<filter id="filter0_d_46_6344" x="0" y="0" width="42" height="42" filterUnits="userSpaceOnUse" color-interpolation-filters="sRGB">
			<feFlood flood-opacity="0" result="BackgroundImageFix" />
			<feColorMatrix in="SourceAlpha" type="matrix" values="0 0 0 0 0 0 0 0 0 0 0 0 0 0 0 0 0 0 127 0" result="hardAlpha" />
			<feOffset dy="2" />
			<feGaussianBlur stdDeviation="5" />
			<feComposite in2="hardAlpha" operator="out" />
			<feColorMatrix type="matrix" values="0 0 0 0 0 0 0 0 0 0 0 0 0 0 0 0 0 0 0.05 0" />
			<feBlend mode="normal" in2="BackgroundImageFix" result="effect1_dropShadow_46_6344" />
			<feBlend mode="normal" in="SourceGraphic" in2="effect1_dropShadow_46_6344" result="shape" />
		</filter>
	</defs>
</svg>
