<svg width="52" height="52" viewBox="0 0 52 52" fill="none" xmlns="http://www.w3.org/2000/svg">
<g filter="url(#filter0_d_492_2435)">
<rect x="10.5" y="8.5" width="31" height="31" rx="4.5" stroke="#B4D3E0" shape-rendering="crispEdges"/>
</g>
<path d="M34.6484 16.0006C28.8851 16 23.1218 16 17.3584 16C15.9581 16.0006 15.0012 16.9522 15 18.3464C15 22.1129 15 25.8795 15.0012 29.6461C15.0012 29.7854 15.0012 29.9265 15.023 30.0632C15.2143 31.2348 16.1113 31.9975 17.3055 31.9987C20.2027 32.0012 23.1 31.9993 25.9972 31.9993C28.8789 31.9993 31.7605 32 34.6422 31.9993C36.0457 31.9993 36.9994 31.0502 37 29.6536C37.0012 25.887 37.0012 22.1198 37 18.3532C36.9988 16.9535 36.0469 16.0006 34.6484 16.0006ZM35.6962 18.2494C32.8675 20.2533 30.045 22.2646 27.2206 24.2747C26.8668 24.5264 26.5099 24.7744 26.1598 25.0311C26.0539 25.1088 25.9779 25.1306 25.8564 25.0442C22.657 22.7587 19.4552 20.4776 16.2508 18.1984C16.1506 18.1276 16.1319 18.0604 16.1599 17.9473C16.2789 17.4656 16.7274 17.1188 17.2637 17.1175C18.6927 17.1144 20.1217 17.1163 21.5507 17.1163C23.0339 17.1163 24.5171 17.1163 26.0009 17.1163C28.8976 17.1163 31.7942 17.1163 34.6914 17.1163C35.2359 17.1163 35.6501 17.391 35.8227 17.8491C35.8887 18.0244 35.8638 18.1301 35.6962 18.2488V18.2494Z" fill="#1D71B7"/>
<path d="M35.8805 19.4005V19.6703C35.8805 22.957 35.8687 26.2438 35.8898 29.5299C35.8942 30.2155 35.399 30.801 34.6122 30.7991C28.8719 30.7817 23.131 30.7824 17.3907 30.7991C16.66 30.8016 16.1019 30.2714 16.1075 29.5107C16.1318 26.232 16.1181 22.9533 16.1181 19.674V19.4186C16.3118 19.477 16.4432 19.6088 16.5877 19.7113C19.1586 21.5405 21.7263 23.3735 24.2946 25.2052C24.7238 25.511 25.1518 25.8193 25.5835 26.122C25.9055 26.3482 26.093 26.3513 26.4113 26.1251C28.3069 24.7776 30.2006 23.4276 32.0937 22.0776C33.3122 21.2092 34.5287 20.3385 35.7466 19.4701C35.7765 19.449 35.812 19.4353 35.8799 19.3993L35.8805 19.4005Z" fill="#1D71B7"/>
<defs>
<filter id="filter0_d_492_2435" x="0" y="0" width="52" height="52" filterUnits="userSpaceOnUse" color-interpolation-filters="sRGB">
<feFlood flood-opacity="0" result="BackgroundImageFix"/>
<feColorMatrix in="SourceAlpha" type="matrix" values="0 0 0 0 0 0 0 0 0 0 0 0 0 0 0 0 0 0 127 0" result="hardAlpha"/>
<feOffset dy="2"/>
<feGaussianBlur stdDeviation="5"/>
<feComposite in2="hardAlpha" operator="out"/>
<feColorMatrix type="matrix" values="0 0 0 0 0 0 0 0 0 0 0 0 0 0 0 0 0 0 0.05 0"/>
<feBlend mode="normal" in2="BackgroundImageFix" result="effect1_dropShadow_492_2435"/>
<feBlend mode="normal" in="SourceGraphic" in2="effect1_dropShadow_492_2435" result="shape"/>
</filter>
</defs>
</svg>
