<svg width="24" height="24" viewBox="0 0 24 24" fill="none" xmlns="http://www.w3.org/2000/svg">
<g clip-path="url(#clip0_2787_79000)">
<path d="M0 18.6194C0.13125 18.174 0.367969 17.819 0.815039 17.6285C0.873633 17.6045 0.914648 17.4961 0.925195 17.4217C1.18535 15.4881 2.61973 14.0426 4.54043 13.8129C4.85391 13.7748 5.17559 13.8076 5.51953 13.8076C5.40879 12.2074 5.30098 10.6565 5.19258 9.08263H4.10156C4.35234 8.284 4.59375 7.51525 4.83809 6.73888H5.63965C5.78965 6.27482 5.94551 5.82013 6.08203 5.36017C6.13242 5.18966 6.21094 5.13576 6.39023 5.13752C7.4584 5.14689 8.52715 5.1422 9.5959 5.1422H9.86484V0.984976L11.0953 0.68439C11.8687 0.495718 12.6393 0.304703 13.4115 0.117203C14.0561 -0.0374849 14.6121 0.27189 14.7686 0.861929C14.9314 1.47658 14.5863 2.04318 13.9336 2.20607C13.2891 2.36662 12.6445 2.51134 11.9936 2.66486V5.13752H12.2367C13.3131 5.13752 14.3895 5.14279 15.4658 5.13283C15.648 5.13283 15.7219 5.19142 15.7717 5.35959C15.907 5.81369 16.06 6.2631 16.2117 6.73126H17.0121C17.257 7.50998 17.4967 8.27287 17.7463 9.0674H5.89922C6.0082 10.6494 6.11543 12.1992 6.225 13.7819C6.32051 13.7819 6.40078 13.7819 6.48574 13.7819C7.17188 13.786 7.85859 13.7748 8.54414 13.7971C10.4396 13.8592 12.1477 15.4436 12.3586 17.3221C12.3773 17.492 12.4213 17.6063 12.6012 17.6953C13.3254 18.0557 13.5164 18.9949 13.0148 19.6289C12.9814 19.6717 12.9469 19.7133 12.9727 19.7414C13.0787 20.0344 13.2381 20.3197 13.2785 20.6203C13.3512 21.157 13.0482 21.6404 12.559 21.8701C12.5024 21.8915 12.4525 21.9276 12.4145 21.9747C12.3765 22.0217 12.3518 22.0781 12.3428 22.1379C12.1154 23.1615 11.3127 23.8565 10.2621 23.9543C10.2099 23.9637 10.1585 23.9774 10.1086 23.9953H3.18223C3.03105 23.9684 2.87813 23.9496 2.7293 23.9121C1.77188 23.6713 1.17949 23.0672 0.942773 22.1092C0.926367 22.0406 0.891211 21.9428 0.839062 21.9223C0.389062 21.7477 0.151758 21.392 0 20.9584V20.4897L0.345117 19.7748L0 19.043V18.6194ZM1.62773 17.5254H11.6631C11.5816 15.975 10.1197 14.5471 8.53828 14.5055C7.32305 14.4738 6.10605 14.4797 4.89023 14.5002C3.83848 14.5178 2.98477 14.9766 2.32969 15.7934C1.9269 16.287 1.68227 16.8906 1.62773 17.5254ZM6.64219 19.418H10.7344C11.1557 19.418 11.5764 19.4238 11.9977 19.418C12.3832 19.4104 12.6627 19.0617 12.5795 18.7084C12.5139 18.4283 12.2648 18.2485 11.9297 18.2485C8.40664 18.2485 4.8832 18.2485 1.35938 18.2485C1.32027 18.2469 1.28109 18.2482 1.24219 18.2526C1.12928 18.2649 1.0222 18.3091 0.933416 18.38C0.844627 18.4508 0.777773 18.5454 0.740625 18.6528C0.655664 18.8654 0.718945 19.0529 0.857813 19.2164C0.99668 19.3799 1.19004 19.4238 1.40391 19.4238C3.15 19.4176 4.89609 19.4156 6.64219 19.418ZM5.18613 22.5996C4.96348 22.4426 4.76191 22.2803 4.5416 22.1514C4.40655 22.0686 4.25368 22.0191 4.0957 22.0072C3.54258 21.9902 2.98828 22.0002 2.43457 22.0002H1.64824C1.66523 22.0735 1.67168 22.1174 1.68574 22.1608C1.70411 22.2209 1.72683 22.2797 1.75371 22.3365C2.08477 22.9881 2.62676 23.274 3.34746 23.274C5.54648 23.2705 7.74551 23.274 9.94453 23.2699C10.1476 23.2711 10.35 23.2465 10.5469 23.1967C11.1105 23.0479 11.5975 22.5018 11.6262 22.0137C11.6116 22.0086 11.5964 22.0053 11.5811 22.0037C11.0432 22.0037 10.5023 22.0336 9.96738 21.992C9.3457 21.944 8.79902 22.0547 8.34492 22.5041C8.30104 22.5388 8.25418 22.5696 8.20488 22.5961L7.05527 21.7846C6.69844 21.5326 6.69902 21.5326 6.35215 21.7776L5.18613 22.5996ZM5.06895 8.36134H16.7818C16.7057 8.11759 16.623 7.89845 16.5721 7.67228C16.5299 7.48654 16.4449 7.43791 16.2533 7.43791C12.6986 7.44494 9.14395 7.44669 5.58926 7.44318H5.35488L5.06895 8.36134ZM6.3873 6.72072H15.4611C15.3885 6.49279 15.3088 6.28947 15.2613 6.07912C15.2191 5.89396 15.133 5.84181 14.9414 5.84474C12.7523 5.85236 10.5633 5.84943 8.37422 5.84943C7.86797 5.84943 7.36172 5.84943 6.85488 5.85353C6.78457 5.85353 6.6709 5.89044 6.65156 5.93966C6.55254 6.184 6.47754 6.44533 6.38672 6.71662L6.3873 6.72072ZM11.2734 2.12287C11.3607 2.09943 11.4334 2.07658 11.5078 2.059C12.2502 1.88322 12.9926 1.71388 13.7344 1.53927C14.0174 1.47248 14.1357 1.30197 14.0801 1.05587C14.0285 0.830289 13.8357 0.742398 13.5363 0.81564C12.6141 1.04064 11.6941 1.27267 10.7695 1.48888C10.602 1.52814 10.568 1.59904 10.5691 1.75607C10.5756 2.81076 10.5727 3.86017 10.5727 4.91193V5.12931H11.2758L11.2734 2.12287ZM10.4121 20.1791L10.3975 20.1334H6.00293C6.01055 20.1598 6.01055 20.1797 6.01934 20.1861C6.71719 20.6813 7.41504 21.1764 8.11699 21.6651C8.14482 21.6793 8.17565 21.6868 8.20693 21.6868C8.23822 21.6868 8.26905 21.6793 8.29688 21.6651C9.00469 21.1746 9.70781 20.676 10.4121 20.1791ZM6.08613 21.1002C5.61738 20.7703 5.18086 20.4627 4.74258 20.1563C4.71787 20.1379 4.68835 20.1271 4.65762 20.1252C4.10176 20.1252 3.54609 20.1252 2.99063 20.1252C2.99063 20.1586 2.99063 20.1697 2.99063 20.1721C3.69375 20.6736 4.39336 21.1764 5.1 21.6721C5.1288 21.685 5.16025 21.6911 5.1918 21.6896C5.22335 21.6882 5.25412 21.6794 5.28164 21.6639C5.54121 21.491 5.79258 21.3076 6.08613 21.1002ZM3.24434 21.2906L3.26367 21.2426L1.83984 20.2365C1.59785 20.066 1.18184 20.0736 0.945117 20.2518C0.853094 20.3179 0.782873 20.41 0.743423 20.5162C0.703973 20.6225 0.697083 20.7381 0.723633 20.8483C0.789844 21.0879 0.999609 21.2842 1.23984 21.2877C1.90781 21.2965 2.57812 21.2906 3.24434 21.2906ZM10.1262 21.2438L10.1408 21.2942C10.7596 21.2942 11.3777 21.2977 11.9959 21.2942C12.1216 21.2961 12.2446 21.2576 12.3468 21.1843C12.4489 21.1109 12.5248 21.0067 12.5631 20.8869C12.6404 20.6526 12.5684 20.4557 12.4031 20.2904C12.2379 20.1252 11.8523 20.042 11.6842 20.1551C11.158 20.5078 10.6447 20.8793 10.1262 21.2438Z" fill="#C10037"/>
<path d="M14.6011 23.9999C14.539 23.4825 14.4722 22.9657 14.4148 22.4478C14.232 20.7907 14.0509 19.1335 13.8716 17.4761C13.7424 16.2913 13.6131 15.1065 13.4838 13.9218C13.4797 13.8854 13.4838 13.8479 13.4838 13.7847H14.3041V9.80029H16.4216V10.804H17.1037V9.79678H19.2189V10.8028H21.3341V9.28467H23.4435V13.7694L23.9609 13.797C23.9076 14.2974 23.856 14.7825 23.8033 15.2677C23.6392 16.7774 23.4744 18.2874 23.3088 19.7976C23.1549 21.1991 22.9986 22.6001 22.84 24.0005L14.6011 23.9999ZM22.2189 23.2616C22.5388 20.3272 22.8552 17.421 23.1746 14.4942C22.9343 14.4942 22.7322 14.5048 22.53 14.4907C22.3619 14.479 22.2857 14.5382 22.23 14.6999C21.9535 15.5015 21.6599 16.2972 21.381 17.0981C21.3283 17.2499 21.2638 17.3161 21.0881 17.3155C19.5056 17.3065 17.9236 17.3065 16.342 17.3155C16.1662 17.3155 16.1029 17.2487 16.049 17.0976C15.7666 16.2894 15.4779 15.4837 15.183 14.6806C15.1578 14.6108 15.0916 14.5083 15.0382 14.5048C14.7857 14.486 14.5302 14.4966 14.2554 14.4966L15.2129 23.2616H22.2189ZM18.5041 16.596V10.5022H17.8343V16.596H18.5041ZM19.2459 11.5388V16.5872H19.9174V11.5388H19.2459ZM16.4539 11.5388C16.4422 11.5657 16.431 11.5792 16.431 11.5933C16.431 13.0581 16.4181 14.5229 16.431 15.9878C16.4351 16.4729 16.6162 16.6241 17.0422 16.5989C17.0556 16.5989 17.0685 16.586 17.0879 16.5761V11.537L16.4539 11.5388ZM20.6498 11.5388V16.596L20.7084 16.6335C20.7582 16.5749 20.8285 16.5251 20.8543 16.4577C20.9767 16.1384 21.1027 15.819 21.1965 15.4903C21.2737 15.2407 21.3184 14.9821 21.3295 14.721C21.3453 13.7478 21.3359 12.7739 21.3359 11.8007V11.5388H20.6498ZM22.056 9.98662V13.7659H22.7287V9.98662H22.056ZM15.7074 13.9452V10.5063H15.0312V13.7542C15.2556 13.8585 15.548 13.6458 15.7074 13.9452Z" fill="#C10037"/>
<path d="M10.7338 9.79688V10.4754H7.0459V9.79688H10.7338Z" fill="#0D233E"/>
<path d="M12.3631 10.4785H11.4707V9.7959H12.3631V10.4785Z" fill="#0D233E"/>
<path d="M8.44336 15.9323V15.2573H9.11777V15.9323H8.44336Z" fill="#0D233E"/>
<path d="M5.59473 15.6777H6.27441V16.3521H5.59473V15.6777Z" fill="#0D233E"/>
<path d="M7.02246 16.3477V15.6797H7.70332V16.3477H7.02246Z" fill="#0D233E"/>
<path d="M4.17432 15.9315V15.2612H4.84932V15.9315H4.17432Z" fill="#0D233E"/>
<path d="M22.0798 18.0264C21.914 19.5498 21.7505 21.0463 21.5847 22.5656H21.328C19.5825 22.5656 17.8364 22.5621 16.0909 22.5703C15.8911 22.5703 15.8302 22.5158 15.8097 22.3148C15.6708 20.9438 15.5167 19.5738 15.3673 18.2039C15.3614 18.15 15.3579 18.0961 15.3521 18.0281L22.0798 18.0264ZM16.4759 21.8426H20.9542C21.0685 20.7955 21.181 19.7637 21.2935 18.7318H16.1372C16.2509 19.7783 16.3628 20.8066 16.4759 21.8426Z" fill="#0D233E"/>
<path d="M17.6783 19.9546V20.6185H16.998V19.9546H17.6783Z" fill="#0D233E"/>
<path d="M19.0807 20.625H18.4062V19.9482H19.0807V20.625Z" fill="#0D233E"/>
<path d="M20.4493 19.9492V20.6178H19.813V19.9492H20.4493Z" fill="#0D233E"/>
</g>
<defs>
<clipPath id="clip0_2787_79000">
<rect width="24" height="24" fill="white"/>
</clipPath>
</defs>
</svg>
