<svg width="24" height="24" viewBox="0 0 24 24" fill="none" xmlns="http://www.w3.org/2000/svg">
<g clip-path="url(#clip0_2787_78834)">
<path d="M0 13.6136C0.115 13.4548 0.25 13.3242 0.46625 13.4042C0.6825 13.4842 0.7075 13.6629 0.703125 13.8629C0.6975 14.1586 0.703125 14.4542 0.703125 14.7836H0.960625C5.33563 14.7836 9.70938 14.785 14.0819 14.7879C14.265 14.7879 14.3556 14.7254 14.4431 14.5742C15.2394 13.1813 16.0402 11.7911 16.8456 10.4036C17.2756 9.65856 17.8138 9.51793 18.5631 9.95105C19.6756 10.594 20.7883 11.2365 21.9013 11.8786C22.58 12.2717 22.7319 12.8373 22.3438 13.5123C22.1081 13.9229 21.8713 14.3329 21.6206 14.7673H23.2369V3.32168H21.9081C21.8225 3.32168 21.7362 3.32543 21.6506 3.32168C21.5599 3.32031 21.4733 3.28423 21.4084 3.22086C21.3435 3.1575 21.3054 3.07167 21.3019 2.98105C21.3007 2.93397 21.3091 2.88714 21.3265 2.8434C21.344 2.79967 21.3702 2.75996 21.4036 2.72668C21.4369 2.69341 21.4767 2.66727 21.5204 2.64986C21.5642 2.63245 21.611 2.62414 21.6581 2.62543C22.1181 2.6173 22.5781 2.62543 23.0381 2.62543H23.25C23.2566 2.49906 23.2566 2.37243 23.25 2.24605C23.2458 2.16305 23.2109 2.08457 23.1521 2.0258C23.0934 1.96703 23.0149 1.93216 22.9319 1.92793C22.8541 1.92146 22.7761 1.92 22.6981 1.92355H8.84813C8.47313 1.92355 8.305 1.81168 8.31188 1.5623C8.31875 1.32418 8.47875 1.22168 8.84562 1.22168H22.7388C23.54 1.22168 23.9531 1.63043 23.9531 2.4248V16.1486C23.9531 16.9467 23.5431 17.3561 22.7437 17.3567C22.3231 17.3567 21.9019 17.3567 21.4813 17.3567C21.2019 17.3567 21.0494 17.2317 21.0469 17.0111C21.0444 16.7904 21.1969 16.6573 21.4713 16.6561C21.9156 16.6561 22.36 16.6561 22.8044 16.6561C23.1319 16.6561 23.2494 16.5311 23.2512 16.2011C23.2512 15.9748 23.2512 15.7492 23.2512 15.4873H22.7875C22.335 15.4873 21.8825 15.4961 21.4306 15.4823C21.2594 15.4779 21.1712 15.5348 21.0863 15.6829C19.8454 17.8442 18.601 20.0033 17.3531 22.1604C17.21 22.4104 17.045 22.6286 16.77 22.7429C16.624 22.8102 16.4639 22.8411 16.3034 22.8331C16.1428 22.825 15.9866 22.7782 15.8481 22.6967C14.619 21.9917 13.3915 21.2833 12.1656 20.5717C12.0862 20.5254 11.9913 20.4711 11.9525 20.3954C11.8275 20.1536 11.625 20.1629 11.4006 20.1636C9.78687 20.1692 8.17312 20.1673 6.55937 20.1667C5.83062 20.1667 5.44937 19.6342 5.68 18.9423C5.76556 18.685 5.93029 18.4613 6.15065 18.3032C6.37101 18.1452 6.6357 18.0608 6.90688 18.0623C7.71938 18.0573 8.52812 18.0623 9.33937 18.0623C9.75562 18.0623 10.0075 17.8204 10.0531 17.3604H9.77563C6.95312 17.3604 4.13063 17.3504 1.30875 17.3679C0.656875 17.3717 0.213125 17.1454 0 16.5179L0 13.6136ZM21.8925 12.8161C21.7894 12.7142 21.6981 12.5786 21.5713 12.5036C20.4288 11.8342 19.2806 11.1754 18.1338 10.5148C17.8275 10.3386 17.6713 10.3779 17.4988 10.6761C15.8192 13.5827 14.1404 16.4896 12.4625 19.3967C12.2856 19.7042 12.3238 19.8523 12.6281 20.0286C13.7806 20.6952 14.9338 21.3619 16.0875 22.0286C16.3856 22.2004 16.5413 22.1567 16.7169 21.8517C18.396 18.945 20.0737 16.0377 21.75 13.1298C21.7975 13.0511 21.8275 12.9623 21.8925 12.8161ZM13.9012 15.4998H0.701875V16.1173C0.701875 16.5617 0.793125 16.6548 1.23 16.6548H12.9875C13.0338 16.6613 13.0809 16.6603 13.1269 16.6517C13.1894 16.6358 13.2458 16.6017 13.2887 16.5536C13.4931 16.2148 13.6875 15.8698 13.9012 15.4998ZM12 18.7629C10.2662 18.7629 8.5625 18.7629 6.85563 18.7667C6.63812 18.7667 6.47438 18.8954 6.37563 19.0904C6.24188 19.3561 6.3075 19.4617 6.60063 19.4617H11.6469C11.7681 19.2242 11.875 19.0111 12 18.7629ZM10.8206 17.3661C10.7388 17.5992 10.6619 17.8167 10.5763 18.0579C11.17 18.0579 11.7513 18.0579 12.3325 18.0548C12.3578 18.0528 12.3825 18.0455 12.4047 18.0333C12.427 18.0212 12.4465 18.0044 12.4619 17.9842C12.5831 17.7886 12.6944 17.5873 12.8219 17.3661H10.8206Z" fill="#C10037"/>
<path d="M0.000136719 2.05864C0.213262 1.43364 0.657012 1.20177 1.30889 1.20864C3.23451 1.22989 5.16076 1.21614 7.08639 1.21677C7.1642 1.21107 7.24241 1.21422 7.31951 1.22614C7.39788 1.23824 7.4692 1.27835 7.52023 1.33904C7.57126 1.39972 7.59854 1.47687 7.59701 1.55614C7.60363 1.63927 7.57848 1.72181 7.52663 1.78711C7.47478 1.85242 7.4001 1.89562 7.31764 1.90802C7.24077 1.92016 7.16277 1.92351 7.08514 1.91802H1.33076C0.745137 1.91802 0.670762 1.99802 0.715137 2.61989H20.0233C20.1089 2.61498 20.1948 2.61665 20.2801 2.62489C20.4739 2.65489 20.5926 2.76864 20.5926 2.97114C20.5926 3.17364 20.4751 3.28677 20.2801 3.31677C20.1947 3.32449 20.1089 3.32595 20.0233 3.32114H0.702012V12.0318C0.702012 12.0861 0.702012 12.1405 0.702012 12.1949C0.712637 12.3949 0.680137 12.5755 0.465137 12.6543C0.250137 12.733 0.115137 12.603 -0.000488281 12.4443L0.000136719 2.05864Z" fill="#C10037"/>
<path d="M13.2069 13.6124C9.73503 13.5437 6.59816 10.848 6.03503 7.43742C5.96691 7.02367 5.93628 6.60304 5.90628 6.18742C5.88566 5.90054 6.02753 5.72679 6.24753 5.72179C6.46753 5.71679 6.59003 5.87929 6.60503 6.17367C6.74878 9.03283 8.11024 11.0845 10.6894 12.3287C11.4988 12.7174 12.3707 12.8862 13.2682 12.9149C13.3382 12.9129 13.4083 12.915 13.4782 12.9212C13.6732 12.9499 13.7869 13.0655 13.7975 13.2637C13.7997 13.3546 13.7659 13.4427 13.7033 13.5087C13.6408 13.5748 13.5547 13.6134 13.4638 13.6162C13.3788 13.6187 13.2925 13.6124 13.2069 13.6124Z" fill="#0D233E"/>
<path d="M13.7139 11.2718C10.9208 11.2093 8.50391 8.92802 8.27641 6.13615C8.26453 5.99677 8.25016 5.8574 8.24641 5.7174C8.23891 5.42865 8.36703 5.25677 8.58703 5.24927C8.80703 5.24177 8.93391 5.40365 8.94703 5.6974C9.02641 7.46365 9.80078 8.84052 11.2808 9.80802C12.0106 10.2801 12.8557 10.5433 13.7245 10.5693C14.1083 10.5855 14.2733 10.6886 14.2702 10.9274C14.267 11.1661 14.0877 11.2799 13.7139 11.2718Z" fill="#0D233E"/>
<path d="M14.2361 8.93387C12.2786 8.88637 10.6068 7.1945 10.5811 5.2345C10.5774 4.96325 10.7011 4.797 10.9143 4.78262C11.1274 4.76825 11.2686 4.93012 11.2824 5.22012C11.358 6.86387 12.6499 8.1745 14.2505 8.23075C14.5818 8.24262 14.7505 8.37012 14.7336 8.60262C14.7168 8.83512 14.5524 8.94137 14.2361 8.93387Z" fill="#0D233E"/>
<path d="M14.7798 6.59448C13.8017 6.58073 12.9304 5.70573 12.9204 4.72636C12.9204 4.49386 13.0454 4.33073 13.2479 4.31511C13.4504 4.29948 13.5954 4.44511 13.6198 4.67823C13.6954 5.41073 14.1129 5.83073 14.8285 5.89448C15.0635 5.91511 15.2098 6.05761 15.2035 6.25823C15.1973 6.45886 15.0298 6.59823 14.7798 6.59448Z" fill="#0D233E"/>
<path d="M17.7131 12.9624C18.4881 13.0555 19.2399 13.4243 19.7218 14.2124C20.1399 14.8943 19.7493 15.558 18.9468 15.5168C18.0456 15.4705 17.3162 15.053 16.8312 14.2855C16.4043 13.6068 16.7874 12.9643 17.7131 12.9624ZM17.3712 13.7287C17.4962 14.338 18.6581 14.9993 19.1762 14.7568C19.0768 14.1605 17.8968 13.488 17.3712 13.7287Z" fill="#0D233E"/>
<path d="M13.8957 19.3748C13.8471 19.3747 13.7989 19.365 13.7539 19.3462C13.709 19.3275 13.6682 19.3001 13.6339 19.2655C13.5995 19.231 13.5724 19.19 13.5539 19.1449C13.5355 19.0998 13.5261 19.0516 13.5264 19.0029C13.5304 18.9047 13.5719 18.8118 13.6423 18.7433C13.7128 18.6748 13.8069 18.636 13.9051 18.6348C14.0029 18.6372 14.0959 18.6778 14.1642 18.7479C14.2326 18.8179 14.2708 18.9119 14.2707 19.0098C14.271 19.0586 14.2614 19.107 14.2426 19.1521C14.2237 19.1972 14.1959 19.238 14.1609 19.272C14.1259 19.3061 14.0844 19.3328 14.0388 19.3504C13.9932 19.3681 13.9446 19.3764 13.8957 19.3748Z" fill="#0D233E"/>
<path d="M15.4862 19.7157C15.4862 19.7644 15.4765 19.8127 15.4575 19.8575C15.4385 19.9024 15.4107 19.9429 15.3757 19.9768C15.3407 20.0107 15.2993 20.0372 15.2538 20.0547C15.2084 20.0722 15.1599 20.0805 15.1112 20.0789C15.013 20.0787 14.9189 20.0396 14.8495 19.9701C14.7802 19.9006 14.7412 19.8064 14.7412 19.7082C14.7447 19.6104 14.7855 19.5176 14.8552 19.449C14.925 19.3803 15.0183 19.3409 15.1162 19.3389C15.2151 19.3402 15.3095 19.3805 15.3788 19.4511C15.4481 19.5217 15.4867 19.6168 15.4862 19.7157Z" fill="#0D233E"/>
<path d="M16.0151 15.7312C15.9173 15.7336 15.8224 15.6977 15.7508 15.6311C15.6791 15.5646 15.6362 15.4726 15.6314 15.3749C15.6309 15.2766 15.6687 15.1819 15.7366 15.1108C15.8046 15.0397 15.8975 14.9977 15.9957 14.9937C16.0937 14.9923 16.1883 15.0294 16.2594 15.0969C16.3304 15.1644 16.3721 15.257 16.3757 15.3549C16.3773 15.4035 16.3692 15.4518 16.3518 15.4972C16.3344 15.5425 16.3082 15.5839 16.2746 15.619C16.241 15.654 16.2007 15.682 16.1562 15.7013C16.1116 15.7205 16.0636 15.7307 16.0151 15.7312Z" fill="#0D233E"/>
<path d="M17.5911 16.0555C17.5926 16.104 17.5845 16.1523 17.5671 16.1976C17.5497 16.2428 17.5235 16.2842 17.4899 16.3191C17.4563 16.3541 17.416 16.3819 17.3714 16.4011C17.3269 16.4202 17.2789 16.4302 17.2304 16.4305C17.1324 16.4329 17.0374 16.3969 16.9657 16.33C16.8939 16.2632 16.8512 16.171 16.8467 16.073C16.8463 15.9748 16.884 15.8802 16.952 15.8092C17.02 15.7382 17.1128 15.6963 17.2111 15.6924C17.3094 15.6911 17.4043 15.7284 17.4753 15.7963C17.5464 15.8642 17.588 15.9573 17.5911 16.0555Z" fill="#0D233E"/>
<path d="M18.4474 17.1345C18.3988 17.1365 18.3503 17.1288 18.3047 17.112C18.259 17.0951 18.2172 17.0695 18.1815 17.0364C18.1458 17.0034 18.1169 16.9636 18.0966 16.9195C18.0763 16.8753 18.0649 16.8275 18.063 16.7789C18.062 16.6806 18.0992 16.5858 18.1669 16.5145C18.2345 16.4432 18.3273 16.4011 18.4255 16.397C18.5235 16.3952 18.6183 16.4317 18.6897 16.4989C18.7611 16.5661 18.8033 16.6585 18.8074 16.7564C18.8092 16.805 18.8013 16.8535 18.7841 16.8991C18.7669 16.9446 18.7407 16.9862 18.7072 17.0214C18.6736 17.0567 18.6333 17.0848 18.5887 17.1043C18.5441 17.1237 18.496 17.134 18.4474 17.1345Z" fill="#0D233E"/>
<path d="M14.9723 17.7958C14.9728 17.8445 14.9636 17.8928 14.945 17.9378C14.9265 17.9828 14.8991 18.0236 14.8644 18.0578C14.8298 18.0919 14.7886 18.1188 14.7434 18.1367C14.6981 18.1546 14.6497 18.1633 14.6011 18.1621C14.5523 18.1626 14.5039 18.1535 14.4587 18.1353C14.4135 18.1171 14.3723 18.0901 14.3375 18.056C14.3026 18.0219 14.2749 17.9812 14.2558 17.9364C14.2367 17.8915 14.2266 17.8433 14.2261 17.7946C14.2286 17.6963 14.2691 17.6028 14.339 17.5336C14.4088 17.4644 14.5028 17.4249 14.6011 17.4233C14.6994 17.4243 14.7935 17.4639 14.8629 17.5336C14.9324 17.6033 14.9717 17.6975 14.9723 17.7958Z" fill="#0D233E"/>
<path d="M18.1055 17.9857C18.1054 18.0344 18.0956 18.0827 18.0766 18.1275C18.0576 18.1724 18.0298 18.213 17.9948 18.247C17.9599 18.281 17.9185 18.3076 17.8731 18.3253C17.8277 18.343 17.7792 18.3514 17.7305 18.3501C17.6323 18.3501 17.5381 18.3111 17.4686 18.2417C17.3991 18.1724 17.36 18.0783 17.3599 17.9801C17.3626 17.8821 17.4032 17.7889 17.4731 17.7202C17.543 17.6514 17.6368 17.6124 17.7349 17.6113C17.8335 17.6125 17.9276 17.6524 17.997 17.7225C18.0663 17.7925 18.1053 17.8871 18.1055 17.9857Z" fill="#0D233E"/>
<path d="M15.6736 16.5682C15.6755 16.6168 15.6677 16.6653 15.6505 16.7108C15.6334 16.7563 15.6073 16.7979 15.5738 16.8332C15.5403 16.8684 15.5 16.8966 15.4555 16.9161C15.4109 16.9355 15.3628 16.9458 15.3142 16.9463C15.2159 16.95 15.1202 16.9146 15.048 16.8478C14.9758 16.781 14.9331 16.6883 14.9292 16.5901C14.9288 16.4918 14.9663 16.3972 15.034 16.3259C15.1016 16.2546 15.1942 16.2122 15.2923 16.2076C15.3904 16.2059 15.4853 16.2427 15.5565 16.3101C15.6278 16.3775 15.6698 16.4702 15.6736 16.5682Z" fill="#0D233E"/>
<path d="M16.5113 16.9092C16.6093 16.9083 16.7039 16.9459 16.7745 17.0139C16.8452 17.0819 16.8865 17.1749 16.8894 17.2729C16.891 17.3216 16.8828 17.3701 16.8652 17.4156C16.8477 17.461 16.8212 17.5024 16.7873 17.5374C16.7534 17.5724 16.7129 17.6002 16.668 17.6192C16.6232 17.6382 16.575 17.648 16.5263 17.6479C16.4283 17.6497 16.3335 17.6129 16.2623 17.5457C16.191 17.4784 16.1489 17.3859 16.145 17.2879C16.1454 17.1898 16.1838 17.0955 16.252 17.025C16.3203 16.9544 16.4132 16.9129 16.5113 16.9092Z" fill="#0D233E"/>
<path d="M16.1877 18.4873C16.1893 18.5358 16.1812 18.5842 16.1637 18.6295C16.1463 18.6748 16.12 18.7162 16.0863 18.7511C16.0526 18.7861 16.0123 18.8139 15.9677 18.833C15.923 18.8521 15.875 18.8621 15.8265 18.8623C15.7282 18.8655 15.6327 18.8296 15.5609 18.7625C15.489 18.6953 15.4468 18.6025 15.4434 18.5042C15.4433 18.406 15.4811 18.3116 15.549 18.2406C15.6169 18.1697 15.7096 18.1278 15.8077 18.1236C15.9061 18.1222 16.0011 18.1596 16.0722 18.2276C16.1433 18.2957 16.1848 18.389 16.1877 18.4873Z" fill="#0D233E"/>
<path d="M17.4042 19.2017C17.4041 19.2504 17.3943 19.2986 17.3753 19.3434C17.3563 19.3882 17.3285 19.4288 17.2935 19.4627C17.2585 19.4966 17.2171 19.5232 17.1717 19.5408C17.1263 19.5585 17.0779 19.5668 17.0292 19.5654C16.931 19.5652 16.8369 19.5261 16.7675 19.4566C16.6981 19.3871 16.6592 19.293 16.6592 19.1948C16.6624 19.097 16.7031 19.0042 16.773 18.9356C16.8428 18.8671 16.9363 18.8281 17.0342 18.8267C17.1328 18.828 17.2269 18.8681 17.2961 18.9382C17.3654 19.0084 17.4042 19.1031 17.4042 19.2017Z" fill="#0D233E"/>
<path d="M16.3431 20.041C16.4414 20.0453 16.5341 20.0879 16.6012 20.1598C16.6683 20.2317 16.7044 20.3271 16.7019 20.4254C16.701 20.4741 16.6902 20.5221 16.6703 20.5666C16.6504 20.6111 16.6218 20.651 16.5861 20.6842C16.5504 20.7173 16.5083 20.7429 16.4625 20.7595C16.4167 20.776 16.368 20.7831 16.3194 20.7804C16.2708 20.7794 16.2228 20.7689 16.1782 20.7493C16.1337 20.7297 16.0935 20.7015 16.0599 20.6663C16.0263 20.631 16.0001 20.5895 15.9826 20.5441C15.9651 20.4987 15.9568 20.4503 15.9581 20.4017C15.9633 20.3035 16.0063 20.2111 16.078 20.1438C16.1498 20.0766 16.2448 20.0398 16.3431 20.041Z" fill="#0D233E"/>
<path d="M20.5405 13.4887C20.4429 13.4887 20.3492 13.4499 20.2802 13.3809C20.2111 13.3118 20.1724 13.2182 20.1724 13.1206C20.1724 13.0229 20.2111 12.9293 20.2802 12.8603C20.3492 12.7912 20.4429 12.7524 20.5405 12.7524C20.6381 12.7524 20.7318 12.7912 20.8008 12.8603C20.8698 12.9293 20.9086 13.0229 20.9086 13.1206C20.9086 13.2182 20.8698 13.3118 20.8008 13.3809C20.7318 13.4499 20.6381 13.4887 20.5405 13.4887Z" fill="#0D233E"/>
</g>
<defs>
<clipPath id="clip0_2787_78834">
<rect width="24" height="24" fill="white"/>
</clipPath>
</defs>
</svg>
