<svg width="28" height="28" viewBox="0 0 28 28" fill="none" xmlns="http://www.w3.org/2000/svg">
<path d="M21.2831 21.5945C22.0742 22.2587 22.3178 23.0987 22.2711 24.059C22.2492 24.5038 22.2711 24.9508 22.2653 25.3971C22.2485 26.3727 21.5019 27.1339 20.5299 27.1347C15.2799 27.1405 10.0313 27.1405 4.78425 27.1347C4.55825 27.135 4.33439 27.0909 4.12549 27.0046C3.91659 26.9184 3.72675 26.7918 3.56684 26.6321C3.40693 26.4724 3.28009 26.2827 3.19358 26.0739C3.10707 25.8651 3.06259 25.6413 3.06269 25.4153C3.05758 24.6701 3.02696 23.9176 3.11883 23.1819C3.27123 21.9671 4.373 21.0454 5.598 21.0257C6.38914 21.0133 7.18102 21.0257 7.97216 21.0221H8.29519C8.29519 20.3556 8.30102 19.7096 8.28716 19.0693C8.28716 18.9964 8.18071 18.914 8.1056 18.8659C6.01144 17.5425 4.67852 15.6787 4.12946 13.2608C3.05175 8.49571 6.26008 3.67956 11.0755 2.82716C15.7917 1.99154 20.2134 4.95852 21.2189 9.62956C21.9787 13.1719 20.3957 16.8746 17.2814 18.812C17.0991 18.9257 17.0204 19.0395 17.027 19.2597C17.0437 19.8321 17.0321 20.4052 17.0321 20.971C17.0539 20.99 17.0671 21.0126 17.0802 21.0126C18.3927 20.9929 19.7154 21.1409 21.0097 20.7566C23.2847 20.0814 25.0434 17.9858 25.2797 15.6299C25.2957 15.4702 25.311 15.3098 25.319 15.223C24.9144 15.2522 24.5133 15.3513 24.1356 15.2959C23.2271 15.1581 22.627 14.3261 22.7137 13.4256C22.7571 13.0055 22.9506 12.6151 23.2587 12.3262C23.5668 12.0372 23.9688 11.8692 24.3908 11.8528C25.3001 11.8258 26.1211 12.4755 26.1758 13.384C26.2487 14.636 26.2735 15.8967 25.8477 17.1101C25.1005 19.2407 23.6702 20.7032 21.5565 21.4975C21.4792 21.5252 21.402 21.5514 21.2831 21.5945ZM12.66 19.275C16.9796 19.275 20.5095 15.756 20.5211 11.4328C20.533 10.3945 20.3391 9.36411 19.9504 8.4012C19.5618 7.43829 18.9862 6.56193 18.257 5.82275C17.5277 5.08357 16.6592 4.49623 15.7016 4.09465C14.744 3.69307 13.7164 3.48521 12.678 3.48309C11.6396 3.48097 10.6111 3.68463 9.65191 4.0823C8.6927 4.47997 7.8218 5.06376 7.08952 5.79996C6.35724 6.53616 5.77809 7.41016 5.38554 8.37147C4.99299 9.33279 4.79482 10.3624 4.80248 11.4007C4.7981 15.7349 8.32873 19.2721 12.66 19.275ZM12.6534 26.264C15.2449 26.264 17.8368 26.264 20.4293 26.264C21.0432 26.264 21.391 25.914 21.3939 25.2979C21.3939 24.7517 21.399 24.2041 21.3939 23.6602C21.3823 22.6532 20.6327 21.8985 19.6279 21.8978C14.9807 21.8944 10.3334 21.8944 5.68623 21.8978C4.69748 21.8978 3.94571 22.6554 3.93185 23.6441C3.92456 24.1721 3.93185 24.7 3.93185 25.2272C3.93185 25.9403 4.25414 26.264 4.96216 26.264H12.6534ZM9.18258 21.0053H16.1396V19.4296C13.8113 20.3877 11.497 20.3818 9.18258 19.4383V21.0053ZM24.4499 12.7241C24.2763 12.7242 24.1066 12.7758 23.9625 12.8725C23.8183 12.9692 23.7062 13.1066 23.6404 13.2672C23.5745 13.4278 23.5579 13.6044 23.5927 13.7745C23.6275 13.9445 23.7121 14.1004 23.8357 14.2223C23.9593 14.3441 24.1164 14.4265 24.2869 14.4588C24.4574 14.4912 24.6337 14.4721 24.7934 14.4039C24.9531 14.3358 25.0888 14.2217 25.1835 14.0762C25.2781 13.9307 25.3273 13.7603 25.3249 13.5867C25.3216 13.3568 25.228 13.1374 25.0643 12.976C24.9005 12.8146 24.6798 12.7241 24.4499 12.7241Z" fill="#C10037"/>
<path d="M7.03189 1.49245C6.95096 1.56537 6.8321 1.72797 6.67387 1.81839C5.6246 2.42068 4.6796 3.15495 3.88991 4.07006C3.45241 4.58047 3.07835 5.13829 2.67658 5.67422C2.62846 5.73985 2.59418 5.82006 2.54533 5.88131C2.38856 6.08985 2.15158 6.13579 1.94668 6.00308C1.74179 5.87037 1.6871 5.65818 1.81033 5.43141C1.91825 5.23235 2.04293 5.04204 2.16835 4.85318C3.20606 3.28606 4.60203 1.98857 6.24075 1.06808C6.31017 1.0246 6.38338 0.987504 6.4595 0.957244C6.74387 0.85589 7.04502 1.0812 7.03189 1.49245Z" fill="#0D233E"/>
<path d="M23.6251 5.68733C23.5201 5.80692 23.4384 5.979 23.3115 6.02348C23.1846 6.06796 23.0031 6.02348 22.8624 5.96661C22.7836 5.93744 22.734 5.82077 22.6822 5.73546C21.6891 4.1058 20.2968 2.75637 18.6368 1.81473C18.5386 1.76661 18.45 1.70115 18.3751 1.6215C18.3112 1.54821 18.2769 1.45374 18.2789 1.35652C18.2809 1.25931 18.3191 1.16634 18.386 1.09577C18.5391 0.908377 18.7433 0.869731 18.9467 0.995148C19.4105 1.27952 19.8815 1.55661 20.3205 1.87744C21.5787 2.79848 22.638 3.96415 23.4347 5.30452C23.4989 5.40806 23.5456 5.52546 23.6251 5.68733Z" fill="#0D233E"/>
<path d="M7.09545 3.35414C6.99483 3.49997 6.93941 3.64581 6.83441 3.72456C6.01821 4.33184 5.29503 5.05502 4.68775 5.87122C4.51275 6.10675 4.2466 6.14029 4.04608 5.98206C3.84556 5.82383 3.81712 5.59487 3.99139 5.35425C4.63164 4.45923 5.41768 3.67812 6.3167 3.04352C6.38846 3.00413 6.46745 2.97969 6.54891 2.97167C6.63036 2.96365 6.7126 2.97221 6.79066 2.99685C6.90806 3.03695 6.98097 3.20831 7.09545 3.35414Z" fill="#0D233E"/>
<path d="M21.0162 6.14174C20.8704 6.03966 20.7245 5.98497 20.6458 5.87997C20.031 5.05796 19.2998 4.3299 18.4751 3.71872C18.2483 3.55028 18.2279 3.29653 18.3883 3.09747C18.4238 3.0529 18.4678 3.01579 18.5177 2.98828C18.5676 2.96077 18.6225 2.9434 18.6791 2.93717C18.7358 2.93093 18.7931 2.93596 18.8478 2.95196C18.9025 2.96795 18.9535 2.99461 18.9979 3.03039C19.9029 3.67333 20.6919 4.46558 21.3312 5.3732C21.3704 5.44466 21.3945 5.52336 21.4022 5.60449C21.4098 5.68562 21.4008 5.76745 21.3757 5.84497C21.3341 5.95726 21.1606 6.02726 21.0162 6.14174Z" fill="#0D233E"/>
<path d="M12.6534 16.6534C11.6168 16.6517 10.6041 16.3426 9.74315 15.7653C8.88222 15.188 8.2118 14.3684 7.81666 13.4101C7.42152 12.4518 7.3194 11.3979 7.52322 10.3816C7.72703 9.36526 8.22762 8.4322 8.9617 7.70036C9.69578 6.96853 10.6304 6.47079 11.6473 6.27009C12.6643 6.06938 13.7179 6.17473 14.675 6.5728C15.632 6.97087 16.4496 7.64379 17.0242 8.50648C17.5989 9.36917 17.9048 10.3829 17.9034 11.4194C17.8991 12.809 17.3442 14.1403 16.36 15.1214C15.3759 16.1025 14.043 16.6534 12.6534 16.6534ZM12.6534 15.7784C13.5172 15.78 14.3621 15.5254 15.0813 15.0469C15.8005 14.5684 16.3617 13.8873 16.6939 13.0899C17.0261 12.2925 17.1144 11.4145 16.9477 10.5669C16.781 9.71932 16.3668 8.94018 15.7573 8.32798C15.1479 7.71578 14.3706 7.29801 13.5237 7.12748C12.6769 6.95696 11.7985 7.04134 10.9996 7.36995C10.2007 7.69856 9.51719 8.25665 9.03542 8.97367C8.55365 9.69069 8.29529 10.5345 8.29298 11.3983C8.29145 11.9725 8.40313 12.5415 8.62165 13.0725C8.84017 13.6036 9.16124 14.0864 9.56649 14.4932C9.97174 14.9001 10.4532 15.2231 10.9834 15.4438C11.5136 15.6644 12.0821 15.7784 12.6563 15.7791L12.6534 15.7784Z" fill="#C10037"/>
<path d="M12.6534 14.9054C10.7853 14.9054 9.05278 13.1912 9.77101 10.9344C10.2384 9.46514 11.1448 8.39034 12.6461 7.89305C13.1915 7.71222 13.4322 7.93753 13.3651 8.51284C13.3097 8.98024 13.2725 9.44982 13.2586 9.92014C13.2586 10.0251 13.3753 10.2118 13.4511 10.222C13.5663 10.2322 13.7165 10.1396 13.8084 10.0477C13.9003 9.95586 13.9542 9.79909 14.0272 9.67441C14.1839 9.41045 14.5303 9.34482 14.7177 9.58034C15.4366 10.4838 15.9354 11.4638 15.6248 12.6698C15.2835 13.9947 14.0592 14.9091 12.6534 14.9054ZM11.3292 13.6002C11.4561 12.8864 11.9024 12.4095 12.38 11.9596C12.5652 11.7853 12.7927 11.805 12.9706 11.98C13.4292 12.4328 13.8791 12.8966 13.9871 13.5776C14.9087 13.0169 15.1129 11.6818 14.4326 10.7113C14.4086 10.7236 14.3859 10.7383 14.3648 10.755C13.9965 11.1065 13.5707 11.2246 13.088 11.0416C12.6053 10.8586 12.4121 10.4583 12.3785 9.97264C12.3559 9.64232 12.3741 9.30909 12.3741 8.95618C12.3296 8.97316 12.2862 8.99314 12.2443 9.01597C11.2133 9.67222 10.622 10.6201 10.4943 11.8254C10.4127 12.5546 10.7357 13.1394 11.3292 13.6002ZM12.6622 12.8813C12.5112 13.1081 12.3858 13.2801 12.2779 13.4646C12.17 13.6491 12.2429 13.8197 12.3982 13.9408C12.4717 14.0038 12.5653 14.0385 12.6622 14.0385C12.759 14.0385 12.8526 14.0038 12.9261 13.9408C13.0807 13.8197 13.1573 13.6542 13.0457 13.4639C12.9341 13.2736 12.8124 13.1081 12.6622 12.8813Z" fill="#0D233E"/>
</svg>
