<svg width="24" height="24" viewBox="0 0 24 24" fill="none" xmlns="http://www.w3.org/2000/svg">
<g clip-path="url(#clip0_2787_78987)">
<path d="M14.6944 24C14.4907 23.8406 14.4751 23.6412 14.5276 23.3993C14.8863 21.7487 15.2319 20.0956 15.5901 18.445C15.6558 18.143 15.7393 17.8452 15.8401 17.5531C16.0526 16.9337 16.5651 16.58 17.3438 16.4987C17.3594 16.4362 17.3776 16.3737 17.3951 16.3112C17.5932 15.5643 18.2076 15.0756 18.9794 15.0662C19.5419 15.06 20.1007 15.0662 20.6726 15.0662C20.9051 14.3118 21.1326 13.5662 21.3601 12.8268C21.6494 11.895 22.2201 11.51 23.1963 11.5768C23.2467 11.5806 23.2965 11.5649 23.3357 11.5331C23.4763 11.3925 23.6332 11.3575 23.7994 11.4643C23.9788 11.58 23.9801 11.7487 23.9207 11.94C23.4707 13.3887 23.0234 14.8385 22.5788 16.2893C22.3913 16.8987 22.1819 17.5031 22.0244 18.1206C21.9619 18.3737 21.9757 18.6587 22.0076 18.9225C22.1951 20.445 22.3926 21.9668 22.5944 23.485C22.6251 23.7131 22.5657 23.8806 22.3707 24H22.1369C22.066 23.9537 22.0069 23.8916 21.9642 23.8184C21.9216 23.7453 21.8966 23.6632 21.8913 23.5787C21.8257 22.9868 21.7407 22.3968 21.6626 21.805H15.5907C15.4657 22.3918 15.3494 22.9712 15.2094 23.5437C15.1694 23.705 15.0551 23.8487 14.9751 24H14.6944ZM15.7501 21.0706H21.5744C21.4826 20.3618 21.3776 19.6768 21.3126 18.9875C21.2888 18.7375 21.1963 18.6912 20.9701 18.6925C19.4882 18.7018 18.0063 18.6975 16.5245 18.6975H16.2501C16.0788 19.5068 15.9144 20.2818 15.7501 21.0706ZM18.0626 17.9937C19.1338 17.9937 20.1832 17.9937 21.2326 17.9893C21.2738 17.9893 21.3369 17.9268 21.3519 17.8787C21.5726 17.1837 21.7863 16.4862 22.0101 15.7637C21.7832 15.7637 21.5826 15.7712 21.3851 15.7637C21.2482 15.7568 21.1757 15.7931 21.1388 15.9387C21.0726 16.2018 20.9863 16.4606 20.9001 16.7187C20.7882 17.0531 20.5738 17.2112 20.2207 17.215C19.8001 17.22 19.3794 17.215 18.9588 17.215H18.0651L18.0626 17.9937ZM22.2276 15.0562C22.5138 14.1287 22.7969 13.2106 23.0801 12.29C22.6276 12.1968 22.2338 12.425 22.0894 12.8718C21.8676 13.5593 21.6594 14.2506 21.4476 14.9406C21.4422 14.9789 21.4422 15.0179 21.4476 15.0562H22.2276ZM18.0769 16.5125C18.7563 16.5125 19.4169 16.5125 20.0769 16.5075C20.1115 16.505 20.1449 16.4945 20.1747 16.4768C20.2044 16.4591 20.2296 16.4347 20.2482 16.4056C20.3251 16.2037 20.3782 15.9937 20.4451 15.7712C19.8994 15.7712 19.3713 15.7512 18.8451 15.7781C18.4657 15.7975 18.1744 16.0987 18.0769 16.5125ZM17.3269 17.2343C16.8744 17.2 16.4769 17.55 16.4807 17.9731H17.3269V17.2343Z" fill="#C10037"/>
<path d="M0 11.6481C0.21125 11.3506 0.343125 11.33 0.63 11.5356C0.679549 11.5647 0.737485 11.5762 0.794375 11.5681C1.735 11.4625 2.53125 12.0763 2.65188 13.0094C2.66051 13.0519 2.66064 13.0957 2.65226 13.1383C2.64388 13.1809 2.62715 13.2214 2.60303 13.2575C2.57892 13.2936 2.5479 13.3245 2.51177 13.3485C2.47563 13.3726 2.4351 13.3892 2.3925 13.3975C2.205 13.4488 2.06813 13.3681 1.99125 13.2013C1.93563 13.0825 1.91125 12.9513 1.86625 12.8263C1.79717 12.6321 1.65925 12.47 1.47863 12.3707C1.29801 12.2714 1.08723 12.2418 0.88625 12.2875C1.17 13.2094 1.45375 14.1294 1.73875 15.0538H2.545C2.51313 14.9375 2.4825 14.8363 2.4575 14.7331C2.4075 14.5256 2.50375 14.3519 2.6975 14.2956C2.875 14.2425 3.05063 14.3319 3.12313 14.5269C3.18563 14.7 3.23625 14.8788 3.295 15.0644H4.755C5.80875 15.0644 6.35063 15.48 6.61 16.4563C6.88625 16.5431 7.1575 16.5944 7.39563 16.7125C7.8075 16.9156 8.06563 17.2675 8.17313 17.7125C8.36229 18.5042 8.54458 19.2973 8.72 20.0919C8.96562 21.2088 9.1975 22.3288 9.44375 23.4456C9.49438 23.6756 9.44375 23.8544 9.26562 24.0013H8.985C8.77 23.8525 8.75563 23.6119 8.7075 23.3875C8.59375 22.8588 8.48125 22.33 8.37 21.8088H2.2975C2.21937 22.4081 2.135 22.9931 2.07063 23.58C2.06502 23.6643 2.03991 23.7461 1.99728 23.8189C1.95466 23.8918 1.89568 23.9538 1.825 24H1.59125C1.4225 23.8888 1.33375 23.75 1.36188 23.5313C1.56021 22.0258 1.75458 20.5194 1.945 19.0119C1.98875 18.6744 2.0325 18.3481 1.92062 18.0006C1.44187 16.5119 0.99125 15.0138 0.526875 13.52C0.35625 12.9725 0.175625 12.4281 0 11.8819V11.6481ZM8.21562 21.0806L7.71562 18.7206C7.68585 18.7112 7.65533 18.7043 7.62437 18.7C6.03312 18.7 4.44208 18.6986 2.85125 18.6956C2.71625 18.6956 2.68187 18.7538 2.66875 18.875C2.63188 19.2156 2.58125 19.555 2.53875 19.895C2.49 20.2856 2.44375 20.6769 2.39438 21.0825L8.21562 21.0806ZM5.90312 17.2144H5.63562C5.02 17.2144 4.405 17.2144 3.79 17.2144C3.38312 17.2144 3.1725 17.0563 3.05 16.67C2.97 16.42 2.89938 16.1631 2.81188 15.9138C2.79125 15.855 2.72312 15.7756 2.67188 15.7719C2.4425 15.7569 2.21187 15.7656 1.95812 15.7656C2.17125 16.4619 2.38 17.1281 2.57687 17.7975C2.62188 17.9506 2.69187 18.0025 2.85375 18.0006C3.79625 17.9925 4.73812 17.9969 5.68062 17.9963C5.74875 17.9963 5.8175 17.9888 5.9 17.9838L5.90312 17.2144ZM3.51062 15.7663C3.57312 15.975 3.64062 16.1569 3.685 16.3444C3.71563 16.4744 3.77562 16.5181 3.90937 16.515C4.28438 16.5069 4.65562 16.515 5.02938 16.515H5.885C5.77125 16.0675 5.45187 15.7825 5.04 15.7713C4.54313 15.7563 4.04562 15.7663 3.51062 15.7663ZM6.63562 17.2338V17.9731H7.49312C7.4375 17.5138 7.07563 17.205 6.6325 17.2338H6.63562Z" fill="#C10037"/>
<path d="M10.1083 23.9998C9.83647 23.7498 9.82522 23.6436 10.0377 23.3229C10.314 22.9079 10.594 22.4954 10.8646 22.0773C10.9208 21.9954 10.9536 21.8996 10.9596 21.8004C10.9596 20.5848 10.9715 19.3686 10.9465 18.1536C10.9408 17.4246 10.7404 16.7103 10.3658 16.0848C10.2784 15.9468 10.1815 15.8151 10.0758 15.6904C9.83834 15.3998 9.55959 15.2004 9.15147 15.2673C9.00393 15.2823 8.85525 15.2823 8.70772 15.2673C8.47897 15.2573 8.33897 15.1298 8.33272 14.9348C8.32647 14.7398 8.46834 14.5904 8.70772 14.5711C8.77022 14.5661 8.83272 14.5711 8.89522 14.5711H15.1158C15.2016 14.5688 15.2875 14.5727 15.3727 14.5829C15.5696 14.6136 15.6852 14.7348 15.6771 14.9336C15.6798 14.9771 15.6734 15.0208 15.6583 15.0617C15.6431 15.1026 15.6195 15.1399 15.5891 15.1711C15.5587 15.2024 15.522 15.227 15.4815 15.2432C15.441 15.2594 15.3976 15.267 15.354 15.2654C15.0977 15.2792 14.8371 15.2498 14.584 15.2804C14.4105 15.2966 14.2445 15.3589 14.1033 15.4611C13.5958 15.8761 13.3033 16.4392 13.1658 17.0654C13.0573 17.543 12.9945 18.0298 12.9783 18.5192C12.9508 19.5942 12.9665 20.6704 12.974 21.7454C12.9785 21.867 13.0151 21.9852 13.0802 22.0879C13.3521 22.5148 13.6396 22.9323 13.919 23.3548C14.1146 23.6498 14.0908 23.7823 13.8108 24.0017H13.5771C13.4846 23.9097 13.3976 23.8125 13.3165 23.7104C13.1458 23.4686 12.9527 23.2342 12.829 22.9692C12.5952 22.4692 12.2271 22.2767 11.6971 22.3886C11.5902 22.4063 11.4924 22.4596 11.4196 22.5398C11.1433 22.9261 10.8902 23.3292 10.6196 23.7198C10.5373 23.8214 10.4463 23.9158 10.3477 24.0017L10.1083 23.9998ZM13.2671 15.2929H10.6608C11.3652 16.1679 11.5983 17.1717 11.6658 18.2304H12.2671C12.3327 17.1648 12.5727 16.1642 13.2671 15.2929ZM12.2465 21.6679V18.9629H11.6802V21.6661L12.2465 21.6679Z" fill="#0D233E"/>
<path d="M9.72271 4.16168C9.72507 3.66964 9.8883 3.19187 10.1875 2.80125C10.4867 2.41063 10.9055 2.12859 11.3799 1.99816C11.8544 1.86772 12.3584 1.89604 12.8153 2.07881C13.2721 2.26157 13.6567 2.58875 13.9102 3.01043C13.9838 3.13269 14.0106 3.27742 13.9858 3.41793C13.9596 3.51293 13.7983 3.63543 13.7002 3.62918C13.6309 3.61939 13.5643 3.59555 13.5046 3.55912C13.4448 3.52268 13.3932 3.47443 13.3527 3.4173C13.1096 3.0373 12.7952 2.7698 12.3527 2.66168C12.0703 2.59129 11.7738 2.60139 11.4968 2.69084C11.2198 2.78029 10.9733 2.94551 10.7854 3.1678C10.5975 3.39009 10.4756 3.66055 10.4334 3.94857C10.3913 4.23659 10.4307 4.53065 10.5471 4.79745C10.6634 5.06425 10.8522 5.29313 11.092 5.45816C11.3318 5.6232 11.613 5.7178 11.9037 5.73125C12.1945 5.7447 12.4832 5.67646 12.7372 5.53426C12.9912 5.39207 13.2003 5.18159 13.3408 4.92668C13.364 4.88605 13.3827 4.84293 13.4033 4.80168C13.5165 4.60293 13.6908 4.53543 13.8702 4.61793C14.0577 4.70605 14.1296 4.89918 14.0296 5.11043C13.6971 5.81355 13.1446 6.25293 12.3821 6.39543C12.0558 6.45503 11.7203 6.44188 11.3997 6.35693C11.079 6.27198 10.7811 6.11731 10.5271 5.90397C10.2731 5.69062 10.0693 5.42385 9.93026 5.12268C9.79122 4.82152 9.72035 4.49338 9.72271 4.16168Z" fill="#0D233E"/>
<path d="M11.625 0.687683C11.6254 0.563919 11.6339 0.440315 11.6506 0.317683C11.6615 0.239715 11.7014 0.168722 11.7624 0.118897C11.8233 0.0690715 11.9008 0.0440855 11.9794 0.0489334C12.1538 0.0489334 12.2919 0.141433 12.3094 0.316433C12.3319 0.563005 12.3319 0.811112 12.3094 1.05768C12.2938 1.23393 12.1556 1.32268 11.9794 1.32268C11.8031 1.32268 11.6794 1.23393 11.6463 1.05831C11.6316 0.935315 11.6245 0.811543 11.625 0.687683Z" fill="#0D233E"/>
<path d="M12.3364 7.673C12.3362 7.78915 12.3291 7.90519 12.3151 8.0205C12.3053 8.09881 12.2662 8.17049 12.2056 8.22116C12.1451 8.27182 12.0677 8.29771 11.9889 8.29362C11.8014 8.29737 11.6639 8.20362 11.6464 8.0155C11.6257 7.78392 11.6245 7.55103 11.6426 7.31925C11.6557 7.13175 11.7857 7.02487 11.9707 7.02112C12.1676 7.01675 12.2939 7.12675 12.3201 7.32425C12.3276 7.44017 12.3276 7.55645 12.3201 7.67237L12.3364 7.673Z" fill="#0D233E"/>
<path d="M8.49071 3.82977C8.59946 3.82977 8.70884 3.82102 8.81696 3.82977C8.90014 3.83092 8.97952 3.86472 9.03799 3.92389C9.09645 3.98306 9.12931 4.06284 9.12946 4.14602C9.14384 4.33352 9.04946 4.48102 8.86821 4.50227C8.62195 4.53071 8.37323 4.53071 8.12696 4.50227C7.93384 4.47977 7.83821 4.32539 7.86196 4.12727C7.88446 3.93977 8.00196 3.83852 8.18946 3.82602C8.29009 3.81977 8.39134 3.82602 8.49196 3.82602L8.49071 3.82977Z" fill="#0D233E"/>
<path d="M15.4606 3.82989C15.5693 3.82989 15.6793 3.82177 15.7868 3.82989C15.8693 3.83102 15.9482 3.86431 16.0065 3.92267C16.0649 3.98103 16.0982 4.05986 16.0993 4.14239C16.1156 4.32989 16.0224 4.47864 15.8406 4.50052C15.5943 4.52895 15.3456 4.52895 15.0993 4.50052C14.9062 4.47864 14.8093 4.32614 14.8318 4.12552C14.8531 3.93802 14.9693 3.83552 15.1568 3.82239C15.2574 3.81552 15.3587 3.82239 15.4593 3.82239L15.4606 3.82989Z" fill="#0D233E"/>
<path d="M10.1074 6.40799C10.048 6.52424 10.023 6.60986 9.96924 6.66986C9.83994 6.81468 9.70331 6.95278 9.55987 7.08361C9.39299 7.23611 9.20299 7.23236 9.05987 7.08861C8.91674 6.94486 8.92112 6.75049 9.07174 6.58861C9.20299 6.44549 9.33049 6.28924 9.48924 6.18486C9.54597 6.15142 9.60883 6.1297 9.67411 6.12101C9.73938 6.11231 9.80574 6.11681 9.86924 6.13424C9.96862 6.16736 10.0292 6.31236 10.1074 6.40799Z" fill="#0D233E"/>
<path d="M14.2063 6.03955C14.327 6.10205 14.4195 6.13018 14.4857 6.18893C14.6311 6.3177 14.7688 6.4548 14.8982 6.59955C14.9629 6.6632 14.9998 6.74984 15.0008 6.84058C15.0019 6.93132 14.967 7.01879 14.9038 7.08393C14.7645 7.2308 14.5695 7.2383 14.4038 7.0883C14.2477 6.95885 14.1068 6.81207 13.9838 6.6508C13.9508 6.59741 13.9291 6.53776 13.9202 6.4756C13.9112 6.41343 13.9152 6.35009 13.932 6.28955C13.9701 6.1908 14.1082 6.12518 14.2063 6.03955Z" fill="#0D233E"/>
<path d="M10.0807 1.98135C10.0295 2.04385 9.97133 2.17323 9.87633 2.21323C9.78133 2.25323 9.61196 2.2526 9.53258 2.19323C9.33781 2.05227 9.16762 1.88017 9.02883 1.68385C8.96633 1.5926 8.98321 1.37573 9.05446 1.29135C9.12571 1.20698 9.36196 1.14135 9.43383 1.19323C9.66071 1.35948 9.84696 1.58198 10.0432 1.78823C10.0701 1.81635 10.0626 1.8751 10.0807 1.98135Z" fill="#0D233E"/>
<path d="M14.1725 2.27503C14.11 2.22191 13.9807 2.16378 13.94 2.06816C13.8994 1.97253 13.9007 1.80378 13.96 1.72566C14.1015 1.53218 14.2738 1.36326 14.47 1.22566C14.5619 1.16316 14.7788 1.18003 14.8638 1.25066C14.9488 1.32128 15.0119 1.55753 14.9588 1.62941C14.7932 1.85628 14.5707 2.04253 14.3644 2.23878C14.3363 2.26316 14.2757 2.25566 14.1725 2.27503Z" fill="#0D233E"/>
</g>
<defs>
<clipPath id="clip0_2787_78987">
<rect width="24" height="24" fill="white"/>
</clipPath>
</defs>
</svg>
